<?xml version="1.0" encoding="utf-8" ?><svg xmlns="http://www.w3.org/2000/svg" xmlns:xlink="http://www.w3.org/1999/xlink" width="645" height="615" viewBox="0 0 645 615"><clipPath id="cl_5"><rect width="645" height="615"/></clipPath><g clip-path="url(#cl_5)"><path fill="#0E0D0D" transform="translate(-191 -203)" d="M560.814 270.73C580.54 269.478 605.474 275.182 622.914 284.3C655.368 301.269 675.773 324.538 686.945 359.117C691.213 358.962 696.232 358.778 700.459 358.931C725.365 359.731 748.917 370.459 765.868 388.725C789.07 413.721 794.096 439.855 792.929 472.752C811.694 493.62 824.189 513.614 829.124 541.958C835.31 575.577 827.709 610.271 808.033 638.224C789.022 665.121 757.775 686.435 725.159 692.022C725.691 697.123 725.327 707.845 725.265 713.249L724.982 748.918C693.158 755.902 634.466 757.892 609.565 733.65C605.279 729.477 599.368 720.168 595.265 715.031C580.747 696.852 568.37 689.362 547.778 680.348C536.114 685.077 525.801 690.225 514.624 695.964C508.752 698.982 502.553 702.206 496.512 704.822C470.525 715.933 441.204 716.342 414.918 705.961C382.919 693.022 362.612 669.069 349.493 637.864C344.981 638.587 338.117 638.815 333.505 638.865C296.263 639.537 260.287 625.346 233.532 599.43C207.826 574.485 193.256 540.233 193.115 504.413C192.939 467.653 207.603 432.378 233.786 406.576C255.211 385.042 291.805 368.616 322.312 368.448C331.28 348.304 354.231 326.411 373.301 315.659C406.899 296.715 439.832 295.198 476.136 305.023C500.718 282.918 528.12 272.829 560.814 270.73Z"/><path fill="#FCD715" transform="translate(-191 -203)" d="M562.189 312.205C574.686 311.274 593.497 316.051 604.59 321.525C656.411 347.1 674.014 427.231 624.983 464.477C616.616 470.833 608.261 474.257 598.362 477.49C604.644 490.513 611.042 503.48 617.555 516.389C670.001 492.208 691.444 456.879 695.466 399.962C727.735 400.641 749.892 423.78 751.651 455.7C752.547 472.741 746.476 489.413 734.833 501.887C720.407 517.653 702.496 524.241 681.505 525.14L681.517 567.499C721.998 567.394 751.029 547.425 774.719 516.296C786.571 531.325 791.913 550.509 790.786 569.502C789.37 593.358 777.314 616.666 759.32 632.257C743.035 646.368 719.918 654.278 698.494 652.875C681.358 651.752 664.524 643.033 655.88 628.076C648.209 614.803 645.243 605.832 634.38 593.402C612.027 567.825 586.523 554.403 552.401 552.197C516.716 549.89 488.1 563.633 461.906 586.747C472.632 599.109 479.67 603.437 489.99 618.062C494.189 613.196 498.187 609.303 503.384 605.506C518.891 594.132 538.316 589.462 557.298 592.543C581.621 596.449 599.155 609.36 613.295 628.909C578.586 626.845 546.398 634.095 515.432 649.752C492.168 661.515 481.298 671.371 454.261 673.107L453.255 673.087C406.597 671.861 374.423 623.852 388.756 580.009C399.509 547.118 432.063 526.703 466.055 526.787C473.39 526.805 483.33 525.244 490.283 523.373C507.14 518.845 522.66 510.329 535.534 498.543C559.633 476.095 570.483 443.315 571.555 411.023C557.54 410.949 543.525 411.107 529.515 411.498C529.547 413.257 529.519 415.016 529.432 416.772C527.716 448.67 509.92 476.403 477.799 484.047C463.68 486.811 449.387 486.319 435.334 489.84C415.341 494.848 398.007 503.418 382.584 517.398C359.898 538.294 346.207 567.179 344.393 597.969C321.331 599.281 304.484 597.872 283.735 586.519C261.57 574.565 245.199 554.135 238.362 529.898C231.161 505.209 234.103 478.667 246.536 456.155C260.504 431.141 280.942 418.829 307.589 411.167C304.638 441.728 310.02 468.124 322.352 495.884C333.797 488.223 345.382 480.771 357.1 473.534C349.895 456.157 346.779 445.382 347.451 426.064C348.477 401.786 359.172 378.928 377.151 362.581C398.583 342.798 418.872 339.647 446.985 340.756C443.345 349.904 439.806 357.532 436.478 367.031C428.187 390.703 427.347 410.069 427.522 434.484L467.912 434.56C462.113 381.163 489.932 326.246 545.338 314.557C551.083 313.345 556.341 312.684 562.189 312.205Z"/><path fill="#FCD715" transform="translate(-191 -203)" d="M606.27 668.914C632.438 668.415 656.817 685.666 683.617 692.248L683.501 712.517L681.731 712.519C666.814 712.516 648.325 711.385 636.687 701.033C633.225 697.954 628.91 692.83 625.729 689.285C619.449 682.3 612.959 675.507 606.27 668.914Z"/></g></svg>