<?xml version="1.0" encoding="utf-8" ?><svg xmlns="http://www.w3.org/2000/svg" xmlns:xlink="http://www.w3.org/1999/xlink" width="647" height="807" viewBox="0 0 647 807"><clipPath id="cl_4"><rect width="647" height="807"/></clipPath><g clip-path="url(#cl_4)"><path transform="translate(-190 -91)" d="M517.279 96.7411C524.035 95.8417 541.69 98.913 548.871 100.152C592.339 107.651 631.109 128.666 662.353 159.741C694.654 191.949 715.344 233.973 721.174 279.214C723.532 297.815 723.488 317.92 723.552 336.712C729.83 339.4 735.766 341.505 742.139 344.501C758.286 352.163 773.019 362.506 785.71 375.091C805.546 395.013 819.609 419.94 826.403 447.22C832.047 470.278 831.051 488.509 831.04 511.942L831.029 563.988L831.113 727.427C831.139 772.96 816.124 810.441 784.078 843.146C758.664 869.083 724.131 885.619 688.053 889.144C677.746 890.152 667.404 889.923 656.985 889.918L616.23 889.892L508.587 889.861L398.264 889.892C378.39 889.881 349.686 890.78 330.715 888.187C317.166 886.288 303.935 882.577 291.375 877.152C251.899 860.134 220.803 828.126 204.932 788.174C199.504 774.371 196.087 759.859 194.789 745.083C193.415 729.638 193.988 709.23 193.978 693.377L194.031 605.519L194.056 524.148C194.018 485.625 192.198 457.546 207.932 421.242C221.981 389.664 246.32 363.781 276.975 347.819C285.073 343.535 293.741 340.07 302.248 336.703C302.125 334.388 302.047 332.07 302.012 329.751C301.784 311.806 301.871 294.469 304.334 276.623C310.539 233.332 330.315 193.124 360.816 161.783C395.211 126.371 440.703 103.816 489.711 97.8778C498.956 96.7944 507.996 96.8411 517.279 96.7411ZM667.125 794.535C686.259 794.393 703.77 787.867 717.291 774.048C726.282 764.897 732.371 753.294 734.792 740.695C736.361 732.464 735.787 717.042 735.816 708.148C736.03 691.208 736.099 674.268 736.024 657.327L735.912 529.534C735.752 496.678 741.304 466.374 715.626 441.22C693.781 419.821 666.469 423.042 638.52 423.046L572.318 423.048L435.599 423.038C410.473 423.037 384.477 422.686 359.425 423.18L357.844 423.213C337.375 424.235 320.46 429.333 306.3 444.851C286.836 466.18 289.25 492.054 289.145 518.603L289.097 584.032L289.094 671.312C289.055 690.755 288.765 710.465 289.699 729.893C290.602 748.706 298.334 765.655 312.635 778.16C321.963 786.206 333.334 791.514 345.491 793.498C356.7 795.264 377.535 794.745 389.297 794.658C408.583 794.505 427.869 794.449 447.155 794.49L667.125 794.535ZM396.517 329.185C438.217 329.796 479.922 329.932 521.625 329.592C558.475 330.343 593.449 329.46 630.032 329.32C629.467 319.602 630.017 307.829 629.171 298.718C626.487 269.597 612.996 242.536 591.355 222.866C568.64 202.521 537.391 190.926 506.843 192.691C472.333 195.93 445.383 207.545 423.045 234.763C397.772 265.558 395.887 292.057 396.517 329.185Z"/><path transform="translate(-190 -91)" d="M510.295 488.203C515.87 486.991 528.273 489.348 533.752 490.998C551.274 496.249 565.929 508.361 574.386 524.581C585.724 545.949 584.639 572.726 571.937 593.277C564.966 604.556 556.278 611.818 544.629 617.992C550.262 654.928 558.135 693.044 564.594 729.98C548.503 730.156 532.23 730.029 516.125 730.023L482.742 729.92C476.149 729.861 467.034 729.494 460.643 730.075C467.77 692.985 474.547 655.829 480.971 618.611C476.267 616.116 471.034 612.431 466.991 608.995C453.418 597.571 444.993 581.182 443.6 563.496C440.953 529.836 461.473 498.615 494.862 490.28C499.991 488.999 505.042 488.607 510.295 488.203Z"/></g></svg>