<?xml version="1.0" encoding="utf-8" ?><svg xmlns="http://www.w3.org/2000/svg" xmlns:xlink="http://www.w3.org/1999/xlink" width="896" height="896" viewBox="0 128 896 896"><path fill="#FDC357" d="M378.702 250.644C372.645 250.333 365.372 247.413 365.889 240.144C366.133 236.935 367.699 233.972 370.213 231.963C379.286 224.576 388.375 232.107 386.698 243.04C386.439 244.731 384.585 246.263 384.218 248.952C388.061 254.737 394.057 268.37 397.556 275.247C405.897 291.657 414.405 307.983 423.078 324.221C426.859 331.32 431.537 340.798 435.59 347.473C438.073 347.286 440.711 347.011 443.185 347.08C446.017 348.96 447.815 350.427 451.144 351.121L448.74 351.828L448.134 353.149C455.133 352.195 459.945 353.463 466.862 355.078C468.542 353.819 467.868 354.195 470.109 353.904L473.533 356.019L476.442 356.343C477.982 360.275 483.47 362.155 486.707 365.811C491.165 370.844 493.984 375.835 497.22 381.655C508.889 384.382 522.131 385.17 533.872 387.239C543.761 388.982 559.077 392.839 568.794 396.137C587.23 416.816 595.394 501.966 597.39 531.995C598.785 533.319 600.099 534.309 600.868 536.035C602.308 539.281 603.105 540.839 606.034 543.063C613.79 548.953 613.339 554.474 614.062 563.807C613.843 571.018 613.393 573.477 611.357 580.405C614.331 584.726 614.423 588.663 616.277 593.051C621.902 607.687 623.634 623.193 632.8 634.278C634.534 636.375 637.472 640.783 639.17 642.431C642.945 646.097 644.501 645.782 647.691 650.509L647.881 650.785L649.913 654.208C652.036 659.373 653.013 663.257 654.464 668.624L654.87 669.597C659.045 677.227 662.227 690.539 663.47 699.316L662.918 701.071L661.999 701.378C649.617 706.257 648.924 704.867 636.161 706.778L636.792 708.959C632.545 711.761 633.688 713.942 633.759 718.784L631.724 718.813L630.088 713.595C626.689 713.711 619.98 713.706 616.964 714.571C615.257 717.249 613.142 719.866 609.838 720.537C608.007 720.915 606.101 720.539 604.55 719.495C603.291 718.632 601.853 716.817 601.028 715.522C597.721 714.081 581.413 715.322 577.275 715.782C565.984 725.437 543.248 731.573 528.685 733.841C528.659 736.967 528.692 746.452 527.803 749.08L526.048 750.088C522.649 750.364 520 750.682 516.556 750.794C513.94 750.88 506.939 750.33 505.261 750.612L504.268 751.123C503.842 753.655 503.392 758.252 504.92 760.38L504.97 760.763L504.136 761.897L504.82 762.848L504.375 763.644C504.06 764.94 503.655 765.462 504.73 766.633L504.671 767.514L503.982 768.948C504.32 769.702 504.286 769.905 504.827 770.42L504.262 771.083C503.897 773.136 503.041 779.267 501.739 780.616C500.97 778.373 501.343 776.888 500.435 775.751C500.499 773.79 500.409 771.824 500.351 769.864C500.029 759.164 500.918 748.493 501.648 737.825C468.217 742.289 445.242 743.448 411.801 741.88C411.648 745.044 411.409 750.223 410.698 753.195C404.371 756.4 388.098 756.328 383.176 750.214C383.38 746.006 383.735 743.064 384.346 738.886C352.166 734.818 334.234 727.53 308.791 708.187C305.819 708.004 297.549 706.628 295.471 707.141L295.086 708.813L295.274 709.843C297.333 718.315 300.27 723.468 288.991 722.694L288.425 722.225C287.488 721.436 284.245 718.259 284.232 717.45C284.156 712.927 269.271 714.066 267.89 715.416C267.694 719.739 267.498 723.728 267.588 728.069C269.157 730.383 270.896 732.656 272.649 734.721C290.713 756.007 271.675 752.855 257.007 747.474C245.63 743.301 236.266 735.882 237.235 723.339C236.02 718.278 235.784 712.151 234.681 706.559C226.133 702.261 228.664 695.228 230.186 687.502C231.717 679.924 237.708 662.6 242.336 656.12C243.267 654.816 250.594 648.01 252.422 646.18C253.728 644.177 255.623 642.465 257.33 640.753L258.434 638.417C260.144 634.096 261.722 629.723 263.166 625.305C266.45 616.001 269.564 606.638 272.505 597.22C274.113 593.305 275.615 589.346 277.009 585.35C273.903 572.614 273.623 563.993 282.059 553.651C276.867 518.523 285.467 464.755 295.446 430.273C299.505 416.246 326.42 396.539 339.951 389.476C354.341 383.791 387.496 380.823 402.538 380.876C402.524 371.647 416.55 362.167 422.89 357.211C424.005 356.34 428.055 351.884 429.184 350.684C423.666 338.613 415.561 324.529 409.368 312.465C399.007 291.927 388.785 271.32 378.702 250.644ZM606.962 564.136C607.717 565.584 608.046 566.527 609.335 567.538C610.34 566.161 610.186 564.244 610.385 562.285C609.924 557.431 609.748 556.903 606.474 553.289C606.327 556.098 605.689 561.923 606.962 564.136ZM384.36 252.497C384.428 254.313 384.778 255.403 385.79 257.416C400.844 287.361 416.095 317.35 431.865 346.921C432.097 347.088 432.329 347.254 432.561 347.421C429.56 337.879 416.326 315.519 411.486 305.768C402.708 288.085 393.737 269.852 384.36 252.497Z"/><path fill="#03203D" d="M339.951 389.476L342.651 392.01C332.263 409.255 331.609 422.425 328.138 441.74C314.879 515.509 322.333 593.03 339.717 665.54C343.089 679.603 352.744 716.042 361.299 726.438C404.765 741.393 504.595 734.313 549.904 721.274C555.21 719.748 561.891 717.991 566.957 715.603C573.966 712.298 575.501 707.299 577.787 700.406C581.076 690.363 583.75 680.13 585.796 669.762L589.141 670.763C588.331 665.745 594.192 627.69 594.966 619.221C595.044 622.225 594.588 623.123 597.507 623.989C600.365 623.488 604.86 620.164 607.678 618.457C609.626 625.856 611.468 631.037 614.628 638.106L617.61 638.162C619.027 636.945 620.398 636.627 622.161 636.001L622.416 637.38C622.54 641.349 621.32 639.384 620.791 641.516C623.36 641.509 622.661 641.124 624.205 642.491C624.751 644.365 624.677 644.458 624.157 646.407L625.124 648.918C631.202 647.271 633.935 647.292 640.168 647.321C643.681 648.385 644.655 648.945 647.881 650.785L649.913 654.208C652.036 659.373 653.013 663.257 654.464 668.624L654.87 669.597C659.045 677.227 662.227 690.539 663.47 699.316L662.918 701.071L661.999 701.378C649.617 706.257 648.924 704.867 636.161 706.778L636.792 708.959C632.545 711.761 633.688 713.942 633.759 718.784L631.724 718.813L630.088 713.595C626.689 713.711 619.98 713.706 616.964 714.571C615.257 717.249 613.142 719.866 609.838 720.537C608.007 720.915 606.101 720.539 604.55 719.495C603.291 718.632 601.853 716.817 601.028 715.522C597.721 714.081 581.413 715.322 577.275 715.782C565.984 725.437 543.248 731.573 528.685 733.841C528.659 736.967 528.692 746.452 527.803 749.08L526.048 750.088C522.649 750.364 520 750.682 516.556 750.794C513.94 750.88 506.939 750.33 505.261 750.612L504.268 751.123C503.842 753.655 503.392 758.252 504.92 760.38L504.97 760.763L504.136 761.897L504.82 762.848L504.375 763.644C504.06 764.94 503.655 765.462 504.73 766.633L504.671 767.514L503.982 768.948C504.32 769.702 504.286 769.905 504.827 770.42L504.262 771.083C503.897 773.136 503.041 779.267 501.739 780.616C500.97 778.373 501.343 776.888 500.435 775.751C500.499 773.79 500.409 771.824 500.351 769.864C500.029 759.164 500.918 748.493 501.648 737.825C468.217 742.289 445.242 743.448 411.801 741.88C411.648 745.044 411.409 750.223 410.698 753.195C404.371 756.4 388.098 756.328 383.176 750.214C383.38 746.006 383.735 743.064 384.346 738.886C352.166 734.818 334.234 727.53 308.791 708.187C305.819 708.004 297.549 706.628 295.471 707.141L295.086 708.813L295.274 709.843C297.333 718.315 300.27 723.468 288.991 722.694L288.425 722.225C287.488 721.436 284.245 718.259 284.232 717.45C284.156 712.927 269.271 714.066 267.89 715.416C267.694 719.739 267.498 723.728 267.588 728.069C269.157 730.383 270.896 732.656 272.649 734.721C290.713 756.007 271.675 752.855 257.007 747.474C245.63 743.301 236.266 735.882 237.235 723.339C236.02 718.278 235.784 712.151 234.681 706.559C226.133 702.261 228.664 695.228 230.186 687.502C231.717 679.924 237.708 662.6 242.336 656.12C243.267 654.816 250.594 648.01 252.422 646.18C253.728 644.177 255.623 642.465 257.33 640.753L258.434 638.417C260.144 634.096 261.722 629.723 263.166 625.305C266.45 616.001 269.564 606.638 272.505 597.22C274.113 593.305 275.615 589.346 277.009 585.35C273.903 572.614 273.623 563.993 282.059 553.651C276.867 518.523 285.467 464.755 295.446 430.273C299.505 416.246 326.42 396.539 339.951 389.476Z"/><path fill="#03203D" d="M257.33 640.753C259.318 639.464 260.996 639.856 263.453 639.959L264.165 640.421C262.702 642.452 261.084 641.005 260.626 643.081C262.057 642.946 262.541 642.868 264.014 643.033C265.138 646.533 260.956 647.882 265.385 651.195L264.225 652.737C268.361 653.701 271.972 654.333 275.685 656.491C278.509 657.93 279.868 658.829 281.962 661.408L282.644 665.26C284.687 665.223 285.079 665.19 287.05 665.606C287.575 675.281 286.987 676.588 291.056 685.771C289.574 686.097 288.963 686.273 287.408 686.297L287.374 686.576C290.306 689.21 291.357 694.429 292.335 698.161C292.467 699.987 292.753 699.288 291.956 700.504L292.315 701.693C294.044 704.31 294.635 705.602 295.086 708.813L295.274 709.843C297.333 718.315 300.27 723.468 288.991 722.694L288.425 722.225C287.488 721.436 284.245 718.259 284.232 717.45C284.156 712.927 269.271 714.066 267.89 715.416C267.694 719.739 267.498 723.728 267.588 728.069C269.157 730.383 270.896 732.656 272.649 734.721C290.713 756.007 271.675 752.855 257.007 747.474C245.63 743.301 236.266 735.882 237.235 723.339C236.02 718.278 235.784 712.151 234.681 706.559C226.133 702.261 228.664 695.228 230.186 687.502C231.717 679.924 237.708 662.6 242.336 656.12C243.267 654.816 250.594 648.01 252.422 646.18C253.728 644.177 255.623 642.465 257.33 640.753Z"/><path fill="#FDC357" d="M260.904 662.233C257.287 660.041 254.04 657.676 258.552 653.174C259.71 652.018 262.54 652.621 264.225 652.737C268.361 653.701 271.972 654.333 275.685 656.491C278.509 657.93 279.868 658.829 281.962 661.408L282.644 665.26C284.687 665.223 285.079 665.19 287.05 665.606C287.575 675.281 286.987 676.588 291.056 685.771C289.574 686.097 288.963 686.273 287.408 686.297L287.374 686.576C290.306 689.21 291.357 694.429 292.335 698.161C292.467 699.987 292.753 699.288 291.956 700.504L292.315 701.693C294.044 704.31 294.635 705.602 295.086 708.813L295.274 709.843C297.333 718.315 300.27 723.468 288.991 722.694L288.425 722.225C287.488 721.436 284.245 718.259 284.232 717.45C284.156 712.927 269.271 714.066 267.89 715.416C266.884 715.185 266.709 715.377 265.58 715.615L265.983 710.008C266.479 709.228 266.437 708.959 266.688 708.018C261.621 706.152 258.036 705.391 252.739 707.197C252.421 705.475 252.161 703.743 251.958 702.004C250.387 687.441 251.991 675.503 261.116 664.273L260.904 662.233Z"/><path fill="#03203D" d="M275.011 693.317C276.657 689.333 283.285 685.105 287.408 686.297L287.374 686.576C290.306 689.21 291.357 694.429 292.335 698.161C292.467 699.987 292.753 699.288 291.956 700.504L292.315 701.693C294.044 704.31 294.635 705.602 295.086 708.813L295.274 709.843C297.333 718.315 300.27 723.468 288.991 722.694L288.425 722.225C287.488 721.436 284.245 718.259 284.232 717.45C284.156 712.927 269.271 714.066 267.89 715.416C266.884 715.185 266.709 715.377 265.58 715.615L265.983 710.008C266.479 709.228 266.437 708.959 266.688 708.018C268.725 702.064 270.648 698.048 273.395 692.49L275.011 693.317Z"/><path fill="#FDC357" d="M275.011 693.317C276.657 689.333 283.285 685.105 287.408 686.297L287.374 686.576C290.306 689.21 291.357 694.429 292.335 698.161C292.467 699.987 292.753 699.288 291.956 700.504L292.315 701.693L291.766 702.614L287.81 704.365L282.905 705.743L281.697 704.544C280.103 701.645 277.096 695.407 275.011 693.317Z"/><path fill="#FEFEFE" d="M292.335 698.161C291.66 698.381 291.337 698.315 290.597 698.342C288.082 696.64 285.757 689.032 287.374 686.576C290.306 689.21 291.357 694.429 292.335 698.161Z"/><path fill="#050401" d="M291.956 700.504L292.315 701.693L291.766 702.614L287.81 704.365L282.905 705.743L281.697 704.544C283.144 703.611 289.965 701.24 291.956 700.504Z"/><path fill="#FDC357" d="M292.315 701.693C294.044 704.31 294.635 705.602 295.086 708.813L295.274 709.843L294.966 714.616C295.387 717.61 296.033 718.736 293.81 721.065C286.617 723.299 280.569 710.536 282.905 705.743L287.81 704.365L291.766 702.614L292.315 701.693Z"/><path fill="#FEFEFE" d="M292.315 701.693C294.044 704.31 294.635 705.602 295.086 708.813L295.274 709.843L294.966 714.616L292.571 713.788C291.49 714.161 292.08 714.089 290.671 713.446C288.332 710.708 288.132 707.8 287.81 704.365L291.766 702.614L292.315 701.693Z"/><path fill="#FDC357" d="M292.315 701.693C294.044 704.31 294.635 705.602 295.086 708.813L295.274 709.843L294.966 714.616L292.571 713.788C292.535 710.054 292.118 706.333 291.766 702.614L292.315 701.693Z"/><path fill="#FDC357" d="M260.904 662.233C257.287 660.041 254.04 657.676 258.552 653.174C259.71 652.018 262.54 652.621 264.225 652.737C268.361 653.701 271.972 654.333 275.685 656.491C278.509 657.93 279.868 658.829 281.962 661.408L282.644 665.26L281.937 668.116C276.219 667.23 268.847 663.532 260.904 662.233Z"/><path fill="#FEFEFE" d="M275.685 656.491C278.509 657.93 279.868 658.829 281.962 661.408L282.644 665.26L281.937 668.116C277.55 664.124 275.522 663.002 275.685 656.491Z"/><path fill="#050401" d="M260.904 662.233C268.847 663.532 276.219 667.23 281.937 668.116L282.644 665.26C284.687 665.223 285.079 665.19 287.05 665.606C287.575 675.281 286.987 676.588 291.056 685.771C289.574 686.097 288.963 686.273 287.408 686.297C283.285 685.105 276.657 689.333 275.011 693.317L273.395 692.49C277.361 685.864 281.125 685.094 288.024 682.994C286.341 676.895 284.32 673.625 278.988 670.211C276.497 668.349 275.629 668.204 272.678 667.308C268.817 666.325 264.962 665.313 261.116 664.273L260.904 662.233Z"/><path fill="#FEFEFE" d="M272.678 667.308C275.629 668.204 276.497 668.349 278.988 670.211C280.201 672.886 286.762 679.709 285.065 682.287C281.994 680.863 274.449 670.477 272.678 667.308Z"/><path fill="#050401" d="M252.739 707.197C258.036 705.391 261.621 706.152 266.688 708.018C266.437 708.959 266.479 709.228 265.983 710.008L265.58 715.615C266.709 715.377 266.884 715.185 267.89 715.416C267.694 719.739 267.498 723.728 267.588 728.069C269.157 730.383 270.896 732.656 272.649 734.721C290.713 756.007 271.675 752.855 257.007 747.474C245.63 743.301 236.266 735.882 237.235 723.339C237.772 718.478 234.871 709.756 237.491 706.87C239.364 706.525 241.028 707.587 242.881 708.406C242.879 710.262 242.64 714.578 243.282 715.935C243.294 713.698 242.979 711.117 244.134 709.389C245.874 708.358 247.83 708.877 249.976 709.098C251.542 708.719 251.679 708.388 252.739 707.197Z"/><path fill="#FDC357" d="M252.739 707.197C258.036 705.391 261.621 706.152 266.688 708.018C266.437 708.959 266.479 709.228 265.983 710.008L265.58 715.615C265.528 718.319 266.3 726.758 264.363 728.224C251.025 738.314 252.007 721.294 251.501 714.786L250.173 714.689C249.601 716.246 249.624 716.731 249.488 718.339C248.908 714.885 249.281 712.444 249.976 709.098C251.542 708.719 251.679 708.388 252.739 707.197Z"/><path fill="#11171C" d="M252.739 707.197C258.036 705.391 261.621 706.152 266.688 708.018C266.437 708.959 266.479 709.228 265.983 710.008C258.073 708.28 254.718 706.28 251.501 714.786L250.173 714.689C249.601 716.246 249.624 716.731 249.488 718.339C248.908 714.885 249.281 712.444 249.976 709.098C251.542 708.719 251.679 708.388 252.739 707.197Z"/><path fill="#FDC357" d="M243.282 715.935C243.294 713.698 242.979 711.117 244.134 709.389C245.874 708.358 247.83 708.877 249.976 709.098C249.281 712.444 248.908 714.885 249.488 718.339C250.139 722.332 251.85 727.8 248.837 730.957C243.607 730.213 243.511 720.021 243.282 715.935Z"/><path fill="#FDC357" d="M237.235 723.339C237.772 718.478 234.871 709.756 237.491 706.87C239.364 706.525 241.028 707.587 242.881 708.406C241.598 709.267 240.501 709.606 240.396 711.272C240.05 716.758 241.941 723.928 243.072 729.298C241.046 727.704 238.16 725.738 237.235 723.339Z"/><path fill="#FDC357" d="M266.514 730.728C272.129 733.315 269.026 748.232 261.171 742.931C258.408 739.498 257.105 737.538 254.81 733.759C259.128 733.325 262.544 732.376 266.514 730.728Z"/><path fill="#FDC357" d="M270.63 742.435C271.06 740.308 271.53 738.16 271.837 736.015C273.613 738.086 275.322 739.927 276.696 742.288C277.79 743.914 278.338 745.785 277.747 747.675C274.901 750.989 267.605 750.629 266.474 746.333C267.161 744.471 268.9 743.637 270.63 742.435Z"/><path fill="#FEDC92" d="M270.63 742.435C271.06 740.308 271.53 738.16 271.837 736.015C273.613 738.086 275.322 739.927 276.696 742.288C274.485 743.327 272.848 743.096 270.63 742.435Z"/><path fill="#FDC357" d="M247.044 733.353L247.703 733.368C248.442 733.392 250.856 733.48 251.234 733.853C255.165 737.743 257.033 741.54 261.201 745.949C253.175 745.609 250.64 739.493 247.044 733.353Z"/><path fill="#FDC357" d="M239.534 729.389C244.067 730.996 245.974 733.945 247.082 738.514C242.381 736.368 241.183 734.032 239.534 729.389Z"/><path fill="#050401" d="M230.186 687.502C231.717 679.924 237.708 662.6 242.336 656.12C243.267 654.816 250.594 648.01 252.422 646.18L253.126 646.279C253.96 646.39 254.504 646.432 255.332 646.476C255.956 647.71 255.525 648.679 255.215 650.089C254.087 651.221 251.339 653.729 250.795 655.016L250.334 657.547L249.33 656.892L247.141 661.188L246.427 661.385L244.41 661.505C243.586 660.311 243.53 659.214 243.264 657.776C241.964 658.215 242.163 658.369 241.126 659.558C240.888 660.751 240.726 661.469 240.662 662.707L242.995 664.433L242.989 665.011C243.011 668.58 238.602 672.289 237.337 676.893C237.03 678.01 234.413 685.464 233.841 686.267L233.225 686.61L232.282 688.061C230.76 688.136 231.433 688.328 230.186 687.502Z"/><path fill="#CC9B57" d="M242.989 665.011C243.011 668.58 238.602 672.289 237.337 676.893C237.03 678.01 234.413 685.464 233.841 686.267L233.225 686.61C234.563 678.616 236.231 669.957 242.989 665.011Z"/><path fill="#CC9B57" d="M246.427 661.385C246.205 658.396 246.563 655.526 249.351 653.825L249.89 654.48L249.33 656.892L247.141 661.188L246.427 661.385Z"/><path fill="#CC9B57" d="M255.215 650.089C255.143 651.517 252.478 660.229 251.519 661.414C250.486 659.744 250.793 657.112 250.795 655.016C251.339 653.729 254.087 651.221 255.215 650.089Z"/><path fill="#FDC357" d="M625.124 648.918C631.202 647.271 633.935 647.292 640.168 647.321C643.681 648.385 644.655 648.945 647.881 650.785L649.913 654.208C652.036 659.373 653.013 663.257 654.464 668.624L654.87 669.597C659.045 677.227 662.227 690.539 663.47 699.316L662.918 701.071L661.999 701.378C649.617 706.257 648.924 704.867 636.161 706.778C629.986 706.27 628.546 694.127 625.701 688.649L625.312 687.911L622.822 689.22C621.024 684.153 615.897 682.829 611.118 681.955L611.696 679.992C606.293 673.238 620.253 664.457 625.036 662.143L623.739 661.523L623.171 659.49C621.898 658.543 620.851 653.327 620.206 651.195L625.124 648.918Z"/><path fill="#FDC357" d="M625.124 648.918C631.202 647.271 633.935 647.292 640.168 647.321C643.681 648.385 644.655 648.945 647.881 650.785L649.913 654.208C652.036 659.373 653.013 663.257 654.464 668.624C651.308 664.66 650.149 662.906 645.652 660.537L643.398 659.375C636.751 659.486 631.368 659.54 625.036 662.143L623.739 661.523L623.171 659.49C621.898 658.543 620.851 653.327 620.206 651.195L625.124 648.918Z"/><path fill="#050401" d="M649.913 654.208C652.036 659.373 653.013 663.257 654.464 668.624C651.308 664.66 650.149 662.906 645.652 660.537L643.398 659.375C636.751 659.486 631.368 659.54 625.036 662.143L623.739 661.523L623.171 659.49C631.676 657.134 638.707 656.061 647.366 658.492C648.79 659.211 648.108 659.212 649.429 658.886C649.895 657.146 649.847 656.02 649.913 654.208Z"/><path fill="#FEFEFE" d="M640.168 647.321C643.681 648.385 644.655 648.945 647.881 650.785L649.913 654.208C649.847 656.02 649.895 657.146 649.429 658.886C648.108 659.212 648.79 659.211 647.366 658.492C645.269 654.477 640.725 651.008 640.168 647.321Z"/><path fill="#FEFEFE" d="M643.398 659.375L645.652 660.537C650.149 662.906 651.308 664.66 654.464 668.624L654.87 669.597C654.35 670.413 653.397 672.004 652.857 672.715C655.128 678.142 658.446 694.41 658.49 700.252C658.598 695.736 652.015 677.961 649.93 673.249C648.221 669.387 642.799 663.499 643.398 659.375Z"/><path fill="#FEDC92" d="M645.652 660.537C650.149 662.906 651.308 664.66 654.464 668.624L654.87 669.597C654.35 670.413 653.397 672.004 652.857 672.715C650.25 668.54 648.004 664.885 645.652 660.537Z"/><path fill="#11171C" d="M611.696 679.992C618.507 680.407 622.242 681.316 625.312 687.911L622.822 689.22C621.024 684.153 615.897 682.829 611.118 681.955L611.696 679.992Z"/><path fill="#CC9B57" d="M594.966 619.221C595.044 622.225 594.588 623.123 597.507 623.989C600.365 623.488 604.86 620.164 607.678 618.457C609.626 625.856 611.468 631.037 614.628 638.106L613.972 638.204C612.727 637.838 611.159 638.054 609.821 638.128C601.217 643.264 598.876 681.336 593.758 690.563C593.793 684.862 595.314 670.119 596.268 663.969L592.53 663.668C591.957 665.049 590.051 670.377 589.141 670.763C588.331 665.745 594.192 627.69 594.966 619.221Z"/><path fill="#11171C" d="M598.754 652.611C597.889 656.232 596.803 660.327 596.268 663.969L592.53 663.668C594.312 659.09 595.794 656.589 598.754 652.611Z"/><path fill="#050401" d="M272.505 597.22C274.536 598.513 274.141 597.843 274.772 599.753C278.513 602.742 281.943 605.541 286.486 607.146C286.121 608.274 286.105 608.683 285.304 609.55C284.246 614.133 282.411 619.957 280.522 624.317C272.37 622.304 275.693 626.094 271.83 628.31L267.617 627.553C265.896 626.506 265.024 626.116 263.166 625.305C266.45 616.001 269.564 606.638 272.505 597.22Z"/><path fill="#FEDC92" d="M271.83 628.31C270.589 626.907 269.28 626.659 268.736 625.431L267.673 625.37L271.131 625.494L271.523 625.014L269.274 623.2C270.006 623.09 270.372 623.057 271.137 623.012L271.878 622.972C271.326 620.709 269.624 622.655 268.657 619.628C270.414 618.75 271.083 620.013 273.901 619.53L273.805 618.568C272.168 617.674 271.529 617.47 269.744 616.863C270.448 615.221 272.012 617.603 274.496 616.521L274.202 615.696C272.724 614.984 272.245 615.008 271.358 613.8C272.825 614.022 273.818 614.269 275.301 614.064C274.548 613.247 274.133 612.824 273.462 611.916C275.333 611.757 274.579 612.11 275.904 611.096C274.475 610.43 273.569 610.071 272.083 609.545C273.303 609.341 274.066 609.223 275.241 608.792L276.024 608.498L275.831 608.745L275.957 608.315L273.125 606.792L272.995 606.214C275.967 605.792 282.236 608.4 285.304 609.55C284.246 614.133 282.411 619.957 280.522 624.317C272.37 622.304 275.693 626.094 271.83 628.31Z"/><path fill="#CC9B57" d="M277.602 639.019C279.301 634.616 283.227 623.737 285.347 619.896C286.271 634.164 287.862 648.382 290.115 662.502C290.982 668.007 295.014 681.177 292.837 685.86L291.973 686.197L291.056 685.771C286.987 676.588 287.575 675.281 287.05 665.606C285.079 665.19 284.687 665.223 282.644 665.26L281.962 661.408C282.231 660.632 282.525 659.163 282.726 658.309C279.468 652.916 283.067 648.415 277.602 639.019Z"/><path fill="#11171C" d="M282.726 658.309L282.853 657.561C283.399 654.254 283.331 648.226 283.903 646.361C287.302 647.094 286.796 661.693 287.05 665.606C285.079 665.19 284.687 665.223 282.644 665.26L281.962 661.408C282.231 660.632 282.525 659.163 282.726 658.309Z"/><path fill="#03203D" d="M625.312 687.911L625.701 688.649C628.546 694.127 629.986 706.27 636.161 706.778L636.792 708.959C632.545 711.761 633.688 713.942 633.759 718.784L631.724 718.813L630.088 713.595C626.689 713.711 619.98 713.706 616.964 714.571L614.967 713.029L616.853 707.321C617.584 705.289 617.668 704.866 617.876 702.715L618.567 701.649C619.427 700.29 622.11 691.469 622.822 689.22L625.312 687.911Z"/><path fill="#11171C" d="M616.853 707.321C617.789 708.033 618.491 708.531 619.322 709.384C622.196 709.091 627.799 708.478 630.193 710.226L630.088 713.595C626.689 713.711 619.98 713.706 616.964 714.571L614.967 713.029L616.853 707.321Z"/><path fill="#CC9B57" d="M619.322 709.384C622.196 709.091 627.799 708.478 630.193 710.226C627.87 711.472 622.189 711.417 619.728 710.666L619.322 709.384Z"/><path fill="#FDC357" d="M608.425 701.164C608.686 699.454 608.391 700.264 609.592 698.757C612.765 699.622 615.564 700.287 618.567 701.649L617.876 702.715C617.668 704.866 617.584 705.289 616.853 707.321L614.967 713.029L616.964 714.571C615.257 717.249 613.142 719.866 609.838 720.537C608.007 720.915 606.101 720.539 604.55 719.495C603.291 718.632 601.853 716.817 601.028 715.522L602.7 714.595C606.204 710.657 606.361 706.447 608.261 701.575L608.425 701.164Z"/><path fill="#050401" d="M614.967 713.029L616.964 714.571C615.257 717.249 613.142 719.866 609.838 720.537C608.007 720.915 606.101 720.539 604.55 719.495C603.291 718.632 601.853 716.817 601.028 715.522L602.7 714.595C607.116 721.427 611.374 719.452 614.967 713.029Z"/><path fill="#050401" d="M608.425 701.164C608.686 699.454 608.391 700.264 609.592 698.757C612.765 699.622 615.564 700.287 618.567 701.649L617.876 702.715C614.763 702.096 611.567 701.644 608.425 701.164Z"/><path fill="#FDC357" d="M611.118 681.955C615.897 682.829 621.024 684.153 622.822 689.22C622.11 691.469 619.427 700.29 618.567 701.649C615.564 700.287 612.765 699.622 609.592 698.757C608.829 698.601 608.584 698.41 607.864 698.073C607.001 695.27 609.809 684.452 611.118 681.955Z"/><path fill="#FFF0C5" d="M271.83 628.31C275.693 626.094 272.37 622.304 280.522 624.317C278.802 629.251 277.232 633.831 275.177 638.648C274.34 638.261 270.094 636.231 269.5 636.076L268.186 637.992C265.185 638.073 260.615 637.496 258.434 638.417C260.144 634.096 261.722 629.723 263.166 625.305C265.024 626.116 265.896 626.506 267.617 627.553L271.83 628.31Z"/><path fill="#03203D" d="M263.166 625.305C265.024 626.116 265.896 626.506 267.617 627.553C269.211 628.924 269.446 628.635 269.715 630.215L269.984 629.725L270.004 630.311L268.232 630.516L268.076 631.015L269.892 632.573L269.338 633.175L267.969 633.218L267.987 633.887L268.112 633.202C268.224 634.86 268.326 634.483 269.5 636.076L268.186 637.992C265.185 638.073 260.615 637.496 258.434 638.417C260.144 634.096 261.722 629.723 263.166 625.305Z"/><path fill="#11171C" d="M609.821 638.128C611.159 638.054 612.727 637.838 613.972 638.204L614.628 638.106L617.61 638.162C614.99 642.125 613.281 645.086 613.736 650.174C613.33 652.443 613.221 652.651 613.62 654.866C612.965 656.878 611.562 662.219 610.849 663.807C610.404 664.942 610.019 665.953 609.629 667.116C607.689 664.406 607.605 662.453 607.513 659.311L606.399 658.304C606.166 653.819 607.496 648.669 608.625 644.373C609.128 642.207 609.458 640.305 609.821 638.128Z"/><path fill="#FDC357" d="M608.625 644.373C610.451 647.072 610.668 649.05 611.173 652.269C610.78 654.693 608.981 657.345 607.513 659.311L606.399 658.304C606.166 653.819 607.496 648.669 608.625 644.373Z"/><path fill="#CC9B57" d="M609.821 638.128C611.159 638.054 612.727 637.838 613.972 638.204C612.45 643.468 611.209 646.688 611.173 652.269C610.668 649.05 610.451 647.072 608.625 644.373C609.128 642.207 609.458 640.305 609.821 638.128Z"/><path fill="#AF8A56" d="M613.62 654.866C612.965 656.878 611.562 662.219 610.849 663.807L609.973 663.143C609.183 660.607 611.798 656.512 613.62 654.866Z"/><path fill="#FDC357" d="M258.434 638.417C260.615 637.496 265.185 638.073 268.186 637.992L271.677 639.813C272.17 641.921 273.444 643.325 274.737 645.107C274.905 648.107 275.093 650.893 275.018 653.901C271.744 652.323 269.022 651.383 265.385 651.195C260.956 647.882 265.138 646.533 264.014 643.033C262.541 642.868 262.057 642.946 260.626 643.081C261.084 641.005 262.702 642.452 264.165 640.421L263.453 639.959C260.996 639.856 259.318 639.464 257.33 640.753L258.434 638.417Z"/><path fill="#FDC357" d="M274.772 599.753C276.664 600.229 277.994 600.687 279.833 601.347L280.215 600.695L279.862 599.533L280.546 598.897L282.069 599.075C280.221 598.122 278.275 597.4 277.142 595.759L277.487 595.181C279.017 595.897 280.485 596.983 281.723 596.542C281.006 595.552 278.742 593.221 278.64 592.829L279.737 592.443L277.896 590.734L278.094 590.287C280.58 591.669 286.747 596.664 288.633 598.849C288.708 599.251 286.84 606.385 286.486 607.146C281.943 605.541 278.513 602.742 274.772 599.753Z"/><path fill="#FEFEFE" d="M271.677 639.813C277.482 641.998 279.664 647.082 278.758 653.513C278.625 654.453 278.25 654.359 277.399 654.76C276.646 654.506 275.721 654.232 275.018 653.901C275.093 650.893 274.905 648.107 274.737 645.107C273.444 643.325 272.17 641.921 271.677 639.813Z"/><path fill="#FDC357" d="M606.399 658.304L607.513 659.311C607.605 662.453 607.689 664.406 609.629 667.116C609.602 669.76 607.637 674.598 606.627 677.217C605.206 675.425 605.94 668.075 605.73 664.693C605.726 662.889 606.165 660.174 606.399 658.304Z"/><path fill="#AF8A56" d="M617.61 638.162C619.027 636.945 620.398 636.627 622.161 636.001L622.416 637.38C614.969 638.76 616.529 646.8 613.736 650.174C613.281 645.086 614.99 642.125 617.61 638.162Z"/><path fill="#CC9B57" d="M604.299 684.455C605.175 678.006 604.71 670.051 605.73 664.693C605.94 668.075 605.206 675.425 606.627 677.217C606.36 679.877 605.32 681.986 604.299 684.455Z"/><path fill="#FDC357" d="M297.401 541.321C321.556 539.247 319.302 610.593 302.843 614.536L301.351 614.21C301.152 612.383 300.964 611.947 301.608 610.304C304.866 605.122 306.3 598.79 307.926 592.89L304.502 593.245L303.275 593.876L300.453 592.094C299.89 593.741 299.864 593.912 298.854 595.297C297.715 596.616 298.079 596.201 296.016 596.682C294.941 597.526 295.009 597.626 293.68 597.749C293.595 595.883 295.795 593.561 296.526 591.28C297.828 587.216 298.346 582.432 298.969 578.183C299.436 571.182 298.684 565.146 295.31 559.002C294.27 557.108 292.258 554.752 292.488 552.847L293.463 552.273C296.84 552.176 298.23 552.252 300.735 554.454C302.608 554.168 302.907 553.852 304.579 552.841C301.829 549.178 296.353 546.559 295.56 544.037L296.691 542.674L297.401 541.321Z"/><path fill="#FDC357" d="M298.969 578.183C299.436 571.182 298.684 565.146 295.31 559.002C294.27 557.108 292.258 554.752 292.488 552.847L293.463 552.273C296.84 552.176 298.23 552.252 300.735 554.454C306.544 563.554 309.637 571.954 306.993 582.875C306.336 587.082 305.757 589.14 304.502 593.245L303.275 593.876L300.453 592.094C299.89 593.741 299.864 593.912 298.854 595.297C297.715 596.616 298.079 596.201 296.016 596.682C294.941 597.526 295.009 597.626 293.68 597.749C293.595 595.883 295.795 593.561 296.526 591.28C297.828 587.216 298.346 582.432 298.969 578.183Z"/><path fill="#FDC357" d="M298.969 578.183C299.849 580.407 299.293 579.806 301.01 581.242L301.922 581.655C302.007 587.907 298.687 591.809 298.854 595.297C297.715 596.616 298.079 596.201 296.016 596.682C294.941 597.526 295.009 597.626 293.68 597.749C293.595 595.883 295.795 593.561 296.526 591.28C297.828 587.216 298.346 582.432 298.969 578.183Z"/><path fill="#624822" d="M301.01 581.242L301.922 581.655C302.007 587.907 298.687 591.809 298.854 595.297C297.715 596.616 298.079 596.201 296.016 596.682C298.749 589.148 299.592 591.313 301.01 581.242Z"/><path fill="#050401" d="M300.453 592.094C301.872 588.385 303.036 583.116 304.486 580.165L305.164 580.3L305.715 582.239L306.993 582.875C306.336 587.082 305.757 589.14 304.502 593.245L303.275 593.876L300.453 592.094Z"/><path fill="#AF8A56" d="M306.993 582.875C306.336 587.082 305.757 589.14 304.502 593.245L303.275 593.876C304.37 590.227 305.025 586.021 305.715 582.239L306.993 582.875Z"/><path fill="#FDC357" d="M297.401 541.321C321.556 539.247 319.302 610.593 302.843 614.536L301.351 614.21C301.152 612.383 300.964 611.947 301.608 610.304C315.407 604.99 313.515 567.352 309.12 555.575C306.688 549.061 302.816 545.359 296.691 542.674L297.401 541.321Z"/><path fill="#050401" d="M296.691 542.674L297.401 541.321C316.494 547.578 315.9 583.309 311.16 598.821C309.373 604.669 305.619 609.875 301.351 614.21C301.152 612.383 300.964 611.947 301.608 610.304C315.407 604.99 313.515 567.352 309.12 555.575C306.688 549.061 302.816 545.359 296.691 542.674Z"/><path fill="#050401" d="M304.579 552.841C310.563 567.711 311.313 576.846 307.926 592.89L304.502 593.245C305.757 589.14 306.336 587.082 306.993 582.875C309.637 571.954 306.544 563.554 300.735 554.454C302.608 554.168 302.907 553.852 304.579 552.841Z"/><path fill="#11171C" d="M310.028 427.978C310.371 426.098 310.407 424.609 311.617 423.208C312.111 426.37 307.792 445.498 306.938 450.484C305.563 458.402 304.491 466.37 303.726 474.371L303.269 474.831L302.717 474.066L299.086 473.391C298.78 476.218 298.254 486.119 297.351 488.037L293.624 488.305C293.662 494.632 293.8 498.331 293.094 504.681C287.507 489.157 296.811 442.753 302.096 427.536C303.663 426.681 304.765 426.867 306.625 426.833C308.446 427.132 308.388 427.12 310.028 427.978Z"/><path fill="#CC9B57" d="M310.028 427.978C310.371 426.098 310.407 424.609 311.617 423.208C312.111 426.37 307.792 445.498 306.938 450.484C305.563 458.402 304.491 466.37 303.726 474.371L303.269 474.831L302.717 474.066L299.086 473.391C300.039 466.274 300.951 459.441 302.233 452.366L305.478 434.777L306.625 426.833C308.446 427.132 308.388 427.12 310.028 427.978Z"/><path fill="#11171C" d="M299.086 473.391C300.039 466.274 300.951 459.441 302.233 452.366L304.587 454.026C303.811 460.712 302.954 467.336 302.717 474.066L299.086 473.391Z"/><path fill="#050401" d="M305.478 434.777C307.03 435.184 306.963 435.09 307.973 436.319L304.587 454.026L302.233 452.366L305.478 434.777Z"/><path fill="#11171C" d="M306.625 426.833C308.446 427.132 308.388 427.12 310.028 427.978L307.973 436.319C306.963 435.09 307.03 435.184 305.478 434.777L306.625 426.833Z"/><path fill="#FDC357" d="M293.094 504.681C287.507 489.157 296.811 442.753 302.096 427.536C302.052 432.917 299.622 442.186 298.654 447.839C296.582 459.929 293.563 476.144 293.624 488.305C293.662 494.632 293.8 498.331 293.094 504.681Z"/><path fill="#CC9B57" d="M306.625 426.833L305.478 434.777L302.233 452.366C300.951 459.441 300.039 466.274 299.086 473.391C298.78 476.218 298.254 486.119 297.351 488.037C295.103 482.272 302.923 432.169 306.625 426.833Z"/><path fill="#11171C" d="M331.544 401.629C330.798 405.88 329.849 410.162 328.746 414.336C325.452 426.803 324.621 440.112 321.452 452.555L320.997 452.789L320.945 452.368C319.851 450.638 319.505 450.5 317.829 449.23C317.019 453.538 316.302 457.013 315.182 461.291C315.626 454.132 320.479 418.18 323.823 412.885L326.657 414.635C327.964 408.765 328.652 406.874 331.544 401.629Z"/><path fill="#FDC357" d="M331.544 401.629C330.798 405.88 329.849 410.162 328.746 414.336C325.452 426.803 324.621 440.112 321.452 452.555L320.997 452.789L320.945 452.368C320.527 443.998 324.857 423.429 326.657 414.635C327.964 408.765 328.652 406.874 331.544 401.629Z"/><path fill="#CC9B57" d="M315.182 461.291C315.626 454.132 320.479 418.18 323.823 412.885C323.812 425.719 318.166 438.517 317.829 449.23C317.019 453.538 316.302 457.013 315.182 461.291Z"/><path fill="#FDC357" d="M323.449 624.216C326.534 626.366 327.33 638.811 328.094 642.678C332.923 667.094 338.988 691.52 348.261 714.658C349.858 718.643 351.64 722.3 352.98 726.381L353.201 727.061C341.913 720.898 323.737 638.851 323.449 624.216Z"/><path fill="#CC9B57" d="M316.22 423.399C316.418 424.343 308.253 470.104 307.461 472.122C305.386 466.197 313.504 430.588 316.22 423.399Z"/><path fill="#FDC357" d="M328.079 686.089C330.453 687.911 338.083 714.052 338.758 718.029C333.904 715.75 329.036 691.835 328.079 686.089Z"/><path fill="#FDC357" d="M302.733 658.993C305.854 660.62 310.664 686.407 311.54 690.981C308.932 689.898 303.24 663.108 302.733 658.993Z"/><path fill="#FDC357" d="M309.299 658.95C312.04 660.825 316.557 685.838 317.155 690.431C314.507 688.84 309.553 662.985 309.299 658.95Z"/><path fill="#FDC357" d="M318.485 668.159C321.085 670.53 324.294 688.004 324.506 692.118C324.451 692.079 324.39 692.048 324.341 692.003C321.652 689.541 319.056 672.516 318.485 668.159Z"/><path fill="#CC9B57" d="M315.15 484.701C316.791 487.039 314.008 506.74 313.613 511.421C311.287 507.612 314.386 490.203 315.15 484.701Z"/><path fill="#CC9B57" d="M578.457 709.348C580.526 709.419 588.159 709.441 589.472 710.418L588.216 711.031C585.415 711.751 579.985 713.909 577.995 711.782L578.457 709.348Z"/><path fill="#FDC357" d="M588.934 684.256C591.658 686.385 589.342 696.24 588.724 699.425C586.32 697.377 588.462 687.178 588.934 684.256Z"/><path fill="#CC9B57" d="M596.251 697.84C597.541 700.586 596.521 706.186 595.417 708.916C594.028 704.667 594.926 701.84 596.251 697.84Z"/><path fill="#03203D" d="M597.39 531.995C598.785 533.319 600.099 534.309 600.868 536.035C602.308 539.281 603.105 540.839 606.034 543.063C613.79 548.953 613.339 554.474 614.062 563.807C613.843 571.018 613.393 573.477 611.357 580.405C614.331 584.726 614.423 588.663 616.277 593.051C621.902 607.687 623.634 623.193 632.8 634.278C634.534 636.375 637.472 640.783 639.17 642.431C642.945 646.097 644.501 645.782 647.691 650.509L647.881 650.785C644.655 648.945 643.681 648.385 640.168 647.321C633.935 647.292 631.202 647.271 625.124 648.918L624.157 646.407C624.677 644.458 624.751 644.365 624.205 642.491C622.661 641.124 623.36 641.509 620.791 641.516C621.32 639.384 622.54 641.349 622.416 637.38L622.161 636.001C620.398 636.627 619.027 636.945 617.61 638.162L614.628 638.106C611.468 631.037 609.626 625.856 607.678 618.457C604.86 620.164 600.365 623.488 597.507 623.989C594.588 623.123 595.044 622.225 594.966 619.221C595.301 614.442 595.62 610.323 595.535 605.518L593.415 604.513L595.742 533.99L597.39 531.995ZM606.962 564.136C607.717 565.584 608.046 566.527 609.335 567.538C610.34 566.161 610.186 564.244 610.385 562.285C609.924 557.431 609.748 556.903 606.474 553.289C606.327 556.098 605.689 561.923 606.962 564.136Z"/><path fill="#050401" d="M616.277 593.051C621.902 607.687 623.634 623.193 632.8 634.278C634.534 636.375 637.472 640.783 639.17 642.431C642.945 646.097 644.501 645.782 647.691 650.509L647.881 650.785C644.655 648.945 643.681 648.385 640.168 647.321C633.935 647.292 631.202 647.271 625.124 648.918L624.157 646.407C624.677 644.458 624.751 644.365 624.205 642.491C622.661 641.124 623.36 641.509 620.791 641.516C621.32 639.384 622.54 641.349 622.416 637.38L622.161 636.001L622.452 635.787L618.946 634.025C622.123 632.782 623.583 632.65 626.989 632.161C623.498 621.99 620.639 611.142 617.224 600.779C615.843 601.712 614.369 602.619 612.958 603.515L611.506 602.779C612.363 602.075 613.371 601.416 614.288 600.775L615.917 599.29C616.405 597.02 615.947 596.894 615.146 594.491L616.277 593.051Z"/><path fill="#CC9B57" d="M622.452 635.787C626.501 634 629.381 633.418 632.992 636.684C631.169 640.486 632.096 642.167 634.94 645.356C632.24 644.907 626.9 645.733 624.157 646.407C624.677 644.458 624.751 644.365 624.205 642.491C622.661 641.124 623.36 641.509 620.791 641.516C621.32 639.384 622.54 641.349 622.416 637.38L622.161 636.001L622.452 635.787Z"/><path fill="#FFF0C5" d="M624.524 635.909C629.202 636.456 630.222 638.021 631.353 642.472C627.037 641.278 626.422 639.663 624.524 635.909Z"/><path fill="#FEFEFE" d="M632.992 636.684C634.74 638.598 636.687 640.314 637.441 642.706C637.186 644.592 636.903 644.674 634.94 645.356C632.096 642.167 631.169 640.486 632.992 636.684Z"/><path fill="#050401" d="M598.601 537.503L600.868 536.035C602.308 539.281 603.105 540.839 606.034 543.063C613.79 548.953 613.339 554.474 614.062 563.807L612.915 561.997C611.638 562.274 611.625 562.402 610.385 562.285C609.924 557.431 609.748 556.903 606.474 553.289C606.327 556.098 605.689 561.923 606.962 564.136C606.821 569.309 605.677 577.035 603.12 581.582C602.908 578.027 604.533 573.925 604.537 569.764C603.209 570.272 603.892 570.097 602.199 569.714L601.802 569.636C600.909 568.434 600.335 552.738 600.194 550.26C599.634 547.053 598.194 540.436 598.601 537.503Z"/><path fill="#CC9B57" d="M605.244 548.936C607.823 551.902 605.159 554.331 611.281 554.712C612.014 557.413 612.529 559.216 612.915 561.997C611.638 562.274 611.625 562.402 610.385 562.285C609.924 557.431 609.748 556.903 606.474 553.289C606.327 556.098 605.689 561.923 606.962 564.136C606.821 569.309 605.677 577.035 603.12 581.582C602.908 578.027 604.533 573.925 604.537 569.764C605.402 563.066 604.215 553.283 605.244 548.936Z"/><path fill="#FEFEFE" d="M605.244 548.936C604.165 546.743 604.126 547.416 604.261 545.254C608.074 544.118 610.523 551.879 611.281 554.712C605.159 554.331 607.823 551.902 605.244 548.936Z"/><path fill="#FDC357" d="M600.194 550.26L601.985 549.847C603.042 556.943 602.692 562.646 602.199 569.714L601.802 569.636C600.909 568.434 600.335 552.738 600.194 550.26Z"/><path fill="#FEFEFE" d="M600.194 550.26C599.634 547.053 598.194 540.436 598.601 537.503C601.591 540.803 601.549 545.412 601.985 549.847L600.194 550.26Z"/><path fill="#FDC357" d="M612.958 603.515C614.369 602.619 615.843 601.712 617.224 600.779C620.639 611.142 623.498 621.99 626.989 632.161C623.583 632.65 622.123 632.782 618.946 634.025L618.431 632.816C619.178 630.923 619.437 625.328 619.62 623.051C618.538 621.306 616.536 620.277 614.752 619.109C614.913 618.096 615.423 617.867 616.251 616.944L615.615 616.545L612.246 617.606L611.902 617.199C613.098 616.196 614.149 615.255 615.295 614.194L615.095 613.429L612.824 613.654L612.609 613.131C613.508 612.197 613.84 611.993 614.36 610.8C613.421 610.548 612.994 610.424 612.096 610.059C612.623 609.266 612.845 608.961 613.483 608.282L614.02 607.713L613.658 607.013L611.789 607.76L611.312 607.225C611.345 605.546 612.004 604.913 612.958 603.515Z"/><path fill="#FDC357" d="M595.535 605.518C596.301 603.583 596.546 602.37 598.175 601.105C602.582 600.931 606.233 614.546 607.678 618.457C604.86 620.164 600.365 623.488 597.507 623.989C594.588 623.123 595.044 622.225 594.966 619.221C595.301 614.442 595.62 610.323 595.535 605.518Z"/><path fill="#FDC357" d="M609.021 587.633L609.99 585.558L610.924 585.489C612.929 587.825 613.637 591.59 615.146 594.491C615.947 596.894 616.405 597.02 615.917 599.29L614.288 600.775C613.371 601.416 612.363 602.075 611.506 602.779L610.946 602.912C609.261 602.004 610.101 599.02 609.486 597.166C609.455 597.072 606.51 594.21 606.143 593.851C607.153 591.075 607.321 590.171 609.021 587.633Z"/><path fill="#FFF0C5" d="M609.021 587.633L609.99 585.558L610.924 585.489C612.929 587.825 613.637 591.59 615.146 594.491C615.947 596.894 616.405 597.02 615.917 599.29L614.288 600.775C612.276 598.312 610.32 591.146 609.021 587.633Z"/><path fill="#03203D" d="M378.702 250.644C372.645 250.333 365.372 247.413 365.889 240.144C366.133 236.935 367.699 233.972 370.213 231.963C379.286 224.576 388.375 232.107 386.698 243.04C386.439 244.731 384.585 246.263 384.218 248.952C388.061 254.737 394.057 268.37 397.556 275.247C405.897 291.657 414.405 307.983 423.078 324.221C426.859 331.32 431.537 340.798 435.59 347.473C438.073 347.286 440.711 347.011 443.185 347.08C446.017 348.96 447.815 350.427 451.144 351.121L448.74 351.828L448.134 353.149L442.505 354.183L441.357 354.766C441.125 358.794 441.932 358.764 438.495 361.101L438.526 361.582L440.638 361.958L440.665 362.909C437.711 364.019 436.327 363.494 433.492 364.749L433.036 365.358L435.426 367.784L433.744 369.189L433.119 369.367L433.494 369.722C434.435 370.626 434.989 370.979 435.387 372.215L435.414 373.022C436.95 374.427 437.172 374.676 438.233 376.463L438.714 377.411L440.72 377.386L443.858 378.179C445.795 379.287 446.074 379.422 448.268 379.795L448.704 381.021C450.495 381.51 451.224 381.573 453.088 381.765C436.161 382.245 418.456 382.294 401.651 383.033L402.538 380.876C402.524 371.647 416.55 362.167 422.89 357.211C424.005 356.34 428.055 351.884 429.184 350.684C423.666 338.613 415.561 324.529 409.368 312.465C399.007 291.927 388.785 271.32 378.702 250.644ZM384.36 252.497C384.428 254.313 384.778 255.403 385.79 257.416C400.844 287.361 416.095 317.35 431.865 346.921C432.097 347.088 432.329 347.254 432.561 347.421C429.56 337.879 416.326 315.519 411.486 305.768C402.708 288.085 393.737 269.852 384.36 252.497Z"/><path fill="#80848B" fill-opacity="0.98823529" d="M432.561 347.421C432.329 347.254 432.097 347.088 431.865 346.921C416.095 317.35 400.844 287.361 385.79 257.416C384.778 255.403 384.428 254.313 384.36 252.497C393.737 269.852 402.708 288.085 411.486 305.768C416.326 315.519 429.56 337.879 432.561 347.421Z"/><path fill="#050401" d="M384.36 252.497L383.541 250.408L384.218 248.952C388.061 254.737 394.057 268.37 397.556 275.247C405.897 291.657 414.405 307.983 423.078 324.221C426.859 331.32 431.537 340.798 435.59 347.473C438.073 347.286 440.711 347.011 443.185 347.08C446.017 348.96 447.815 350.427 451.144 351.121L448.74 351.828L448.134 353.149L442.505 354.183C440.853 353.687 441.489 354.149 440.491 352.805C442.203 352.49 442.537 352.409 444.169 351.818L444.505 350.981C442.874 349.732 441.574 349.899 439.485 349.771C436.731 349.304 434.458 349.295 432.561 347.421C429.56 337.879 416.326 315.519 411.486 305.768C402.708 288.085 393.737 269.852 384.36 252.497Z"/><path fill="#FEDC92" d="M439.485 349.771C441.574 349.899 442.874 349.732 444.505 350.981L444.169 351.818C442.537 352.409 442.203 352.49 440.491 352.805C438.577 352.773 432.213 353.836 429.988 354.156L439.485 349.771Z"/><path fill="#FEFEFE" d="M374.12 231.226C381.395 230.711 382.533 233.068 384.642 239.38C378.669 239.001 381.239 237.181 376.314 233.803C374.971 232.881 374.965 232.733 374.12 231.226Z"/><path fill="#FDC357" d="M448.134 353.149C455.133 352.195 459.945 353.463 466.862 355.078C468.431 355.921 470.497 356.938 471.88 357.983C478.421 360.858 484.542 365.176 488.679 371.103C491.185 374.544 492.938 377.929 494.566 381.87C482.878 381.718 468.561 381.494 457.078 379.549L454.495 376.251C450.028 376.331 445.066 376.362 440.72 377.386L438.714 377.411L438.233 376.463C437.172 374.676 436.95 374.427 435.414 373.022L435.387 372.215C434.989 370.979 434.435 370.626 433.494 369.722L433.119 369.367L433.744 369.189L435.426 367.784L433.036 365.358L433.492 364.749C436.327 363.494 437.711 364.019 440.665 362.909L440.638 361.958L438.526 361.582L438.495 361.101C441.932 358.764 441.125 358.794 441.357 354.766L442.505 354.183L448.134 353.149Z"/><path fill="#FEFEFE" d="M460.637 355.049C464.56 356.009 467.94 357.726 471.88 357.983C478.421 360.858 484.542 365.176 488.679 371.103C488.65 371.404 488.618 371.706 488.583 372.007C488.382 373.757 488.36 375.231 487.144 376.189C483.017 371.337 479.768 366.851 474.327 363.459C469.876 360.686 464.506 358.412 460.637 355.049Z"/><path fill="#412515" d="M435.387 372.215C438.907 371.57 440.351 371.237 443.896 371.386C445.28 371.963 446.428 372.442 447.851 372.913C450.193 373.297 450.709 373.331 452.858 374.228L454.495 376.251C450.028 376.331 445.066 376.362 440.72 377.386L438.714 377.411L438.233 376.463C437.172 374.676 436.95 374.427 435.414 373.022L435.387 372.215Z"/><path fill="#CC9B57" d="M452.858 374.228L454.495 376.251C450.028 376.331 445.066 376.362 440.72 377.386L438.714 377.411L438.233 376.463C439.552 375.259 449.998 374.659 452.858 374.228Z"/><path fill="#CC9B57" d="M435.387 372.215C438.907 371.57 440.351 371.237 443.896 371.386C445.28 371.963 446.428 372.442 447.851 372.913C443.706 372.994 439.56 373.03 435.414 373.022L435.387 372.215Z"/><path fill="#11171C" d="M444.875 365.359C445.599 366.577 445.532 366.877 445.725 368.269L447.462 369.486L447.346 370.319C445.989 370.808 445.287 371.042 443.896 371.386C440.351 371.237 438.907 371.57 435.387 372.215C434.989 370.979 434.435 370.626 433.494 369.722L433.119 369.367L433.744 369.189L435.426 367.784C438.558 367.484 442.072 366.808 444.875 365.359Z"/><path fill="#AF8A56" d="M444.875 365.359C445.599 366.577 445.532 366.877 445.725 368.269C441.579 368.481 437.877 368.648 433.744 369.189L435.426 367.784C438.558 367.484 442.072 366.808 444.875 365.359Z"/><path fill="#412515" d="M435.426 367.784L433.036 365.358L433.492 364.749L433.945 364.763C438.713 364.865 440.155 363.4 444.875 365.359C442.072 366.808 438.558 367.484 435.426 367.784Z"/><path fill="#050401" d="M466.862 355.078C468.542 353.819 467.868 354.195 470.109 353.904L473.533 356.019L476.442 356.343C477.982 360.275 483.47 362.155 486.707 365.811C491.165 370.844 493.984 375.835 497.22 381.655C508.889 384.382 522.131 385.17 533.872 387.239C543.761 388.982 559.077 392.839 568.794 396.137C587.23 416.816 595.394 501.966 597.39 531.995L595.742 533.99C593.934 520.188 594.149 504.034 591.994 490.716C587.521 463.075 582.873 422.945 568.604 399.059C535.414 384.888 488.799 384.066 453.088 381.765C451.224 381.573 450.495 381.51 448.704 381.021L448.268 379.795C446.074 379.422 445.795 379.287 443.858 378.179L440.72 377.386C445.066 376.362 450.028 376.331 454.495 376.251L457.078 379.549C468.561 381.494 482.878 381.718 494.566 381.87C492.938 377.929 491.185 374.544 488.679 371.103C484.542 365.176 478.421 360.858 471.88 357.983C470.497 356.938 468.431 355.921 466.862 355.078Z"/><path fill="#CC9B57" d="M443.858 378.179C447.965 377.872 449.843 377.559 453.802 378.498L454.377 379.021C451.858 379.93 450.872 379.81 448.268 379.795C446.074 379.422 445.795 379.287 443.858 378.179Z"/><path fill="#050401" d="M593.415 604.513L595.535 605.518C595.62 610.323 595.301 614.442 594.966 619.221C594.192 627.69 588.331 665.745 589.141 670.763L585.796 669.762C587.42 663.072 588.065 655.723 589.089 648.849C591.383 633.45 593.554 620.131 593.415 604.513Z"/><path fill="#050401" d="M339.951 389.476C354.341 383.791 387.496 380.823 402.538 380.876L401.651 383.033C389.657 383.339 351.344 384.4 342.651 392.01L339.951 389.476Z"/><path fill="#03203D" d="M537.29 605.074C532.674 606.665 525.51 610.409 520.394 612.401C507.238 617.525 495.217 619.409 481.297 621.283C444.713 626.208 407.58 618.097 378.035 595.607C358.689 580.88 347.466 551.838 345.173 528.16C344.222 518.343 344.551 507.586 345.651 497.734C346.53 490.993 346.645 483.059 348.143 476.48C352.521 457.256 368.817 432.339 384.803 421.202C399.799 410.755 426.502 405.313 444.235 403.67C475.872 400.74 512.739 404.321 537.747 425.777C563.318 446.639 571.083 470.69 574.258 502.564C576.752 527.606 572.952 559.597 560.118 581.775C556.686 587.706 550.491 593.184 546.063 598.527C543.203 600.628 540.028 602.861 537.29 605.074Z"/><path fill="#FEDC92" d="M450.877 424.338C455.77 423.892 460.694 423.897 465.587 424.352C495.695 427.218 519.037 447.997 515.777 479.717C513.81 498.855 499.075 505.895 485.196 516.38C475.39 523.787 475.825 532.006 474.494 543.228C469.19 543.458 446.127 545.14 442.427 544.465C439.095 542.478 439.725 535.73 439.773 532.376C439.89 524.169 442.287 517.05 445.826 509.756C455.694 494.462 466.509 498.269 474.449 477.274C472.241 469.102 469.474 461.242 460.435 458.524C451.54 455.898 441.995 459.614 437.217 467.563C434.969 471.388 433.767 480.395 429.444 481.933C424.951 483.531 399.23 486.486 395.727 485.291C394.979 484.164 394.6 483.063 394.568 481.685C393.749 446.807 418.391 427.812 450.877 424.338Z"/><path fill="#FDC357" d="M452.074 427.704C468.547 424.528 489.976 433.936 500.733 446.277C509.009 455.771 511.575 467.667 510.739 479.923C509.548 497.392 494.639 505.222 482.239 514.691C473.988 521.178 472.98 528.338 472.085 538.266C464.339 538.394 453.621 539.779 445.412 540.249C443.58 522.989 443.709 515.49 457.241 503.851C463.916 499.308 472.185 494.405 476.353 487.59C488.86 467.138 467.875 448.773 447.199 454.192C432.367 458.079 432.993 467.406 426.107 478.356L425.649 479.075C420.481 479.198 404.783 480.821 400.905 480.033C395.018 474.102 405.179 455.029 409.294 449.75C420.401 435.505 434.712 430.038 452.074 427.704Z"/><path fill="#FEDC92" d="M456.392 555.878C461.634 555.615 466.163 555.584 470.985 557.819C475.868 560.097 479.638 564.232 481.456 569.304C486.204 582.435 476.433 593.178 464.591 597.361C459.247 597.497 454.664 597.754 449.648 595.516C439.421 590.952 435.151 579.468 440.083 569.362C443.647 562.057 448.96 558.586 456.392 555.878Z"/><path fill="#FDC357" d="M456.947 559.757C470.323 558.965 475.397 564.137 478.338 576.385C477.978 577.887 477.528 579.366 476.988 580.814C474.651 587.009 468.878 589.517 463.386 592.06C455.519 592.139 447.115 590.082 443.527 582.177C441.955 578.682 441.904 574.69 443.387 571.156C445.976 564.835 451.061 562.182 456.947 559.757Z"/><path fill="#050401" d="M497.65 693.222C498.552 693.084 501.178 692.88 502.058 692.955C511.305 693.75 508.259 713.829 507.673 719.847C497.731 724.546 457.325 725.263 442.233 726.639C439.925 726.802 429.851 727.837 429.925 724.143C430.082 716.323 428.272 706.453 431.684 699.311C432.322 697.977 436.116 698.037 437.487 697.733C457.553 697.106 477.701 695.528 497.65 693.222Z"/><path fill="#CC9B57" d="M496.601 719.894C498.983 719.075 500.066 718.538 502.592 718.666L503.279 719.447L502.738 720.108C500.954 720.559 499.229 720.792 497.403 720.945C491.155 721.47 435 726.625 433.018 724.381C430.249 721.247 431.708 706.857 432.369 702.706C432.656 700.906 433.137 700.398 434.59 699.344C439.495 698.727 452.535 698.477 457.499 698.324C464.352 698.112 500.737 693.829 504.762 695.934C507.678 700.9 506.894 713.903 505.816 719.611C505.261 715.671 505.139 712.57 504.98 708.627L504.332 708.167L502.492 708.933C496.989 710.389 484.689 710.675 478.681 710.932C465.042 711.532 451.395 711.936 437.744 712.144L437.29 712.555C439.239 712.619 444.185 712.406 445.353 713.291L445.476 713.767L478.321 712.599C485.73 712.321 497.148 710.985 503.776 712.618L504.362 712.758C504.479 712.789 504.595 712.819 504.712 712.85C501.167 713.256 497.603 713.713 494.042 713.882L494.31 715.004L495.399 715.201C498.687 714.896 499.401 714.724 502.565 715.809L502.874 716.373C501.312 717.208 501.088 717.135 499.263 717.233C498.01 717.516 496.927 717.629 495.897 718.368C496.094 718.818 496.357 719.496 496.601 719.894Z"/><path fill="#AF8A56" d="M466.817 703.102C471.328 703.359 484.321 702.67 488.934 702.23L489.368 705.02C493.309 704.497 498.475 703.778 502.392 704.715C503.042 706.341 502.906 706.496 502.465 708.285L502.492 708.933C496.989 710.389 484.689 710.675 478.681 710.932C465.042 711.532 451.395 711.936 437.744 712.144L436.768 711.38L433.392 710.806C433.242 707.974 433.691 705.999 433.368 702.847L435.177 704.355L435.89 704.197C439.605 704.519 461.952 703.808 465.321 703.01L466.817 703.102Z"/><path fill="#11171C" d="M466.817 703.102C471.328 703.359 484.321 702.67 488.934 702.23L489.368 705.02C483.862 704.893 438.297 706.385 436.687 707.687C441.978 708.868 458.175 707.787 464.207 707.367L465.269 708.745L465.081 709.716C460.311 709.861 440.003 710.009 436.768 711.38L433.392 710.806C433.242 707.974 433.691 705.999 433.368 702.847L435.177 704.355L435.89 704.197C439.605 704.519 461.952 703.808 465.321 703.01L466.817 703.102Z"/><path fill="#CC9B57" d="M465.081 709.716C474.243 708.478 493.173 707.901 502.465 708.285L502.492 708.933C496.989 710.389 484.689 710.675 478.681 710.932C465.042 711.532 451.395 711.936 437.744 712.144L436.768 711.38C440.003 710.009 460.311 709.861 465.081 709.716Z"/><path fill="#050401" d="M502.392 704.715C503.042 706.341 502.906 706.496 502.465 708.285C493.173 707.901 474.243 708.478 465.081 709.716L465.269 708.745L464.207 707.367C470.525 707.041 497.698 706.157 502.392 704.715Z"/><path fill="#11171C" d="M433.368 702.847C434.746 701.128 435.38 700.228 437.668 700.183C456.977 699.807 476.031 698.99 495.284 697.257C497.529 697.055 501.012 696.981 503.16 697.292C505.316 700.021 504.927 705.03 504.98 708.627L504.332 708.167L502.492 708.933L502.465 708.285C502.906 706.496 503.042 706.341 502.392 704.715C498.475 703.778 493.309 704.497 489.368 705.02L488.934 702.23C484.321 702.67 471.328 703.359 466.817 703.102L465.321 703.01C461.952 703.808 439.605 704.519 435.89 704.197L435.177 704.355L433.368 702.847Z"/><path fill="#AF8A56" d="M466.817 703.102C471.34 701.102 496.013 700.22 501.027 700.864C495.318 702.199 494.549 701.836 488.934 702.23C484.321 702.67 471.328 703.359 466.817 703.102Z"/><path fill="#AF8A56" d="M435.89 704.197C438.293 702.135 461.437 702.258 465.321 703.01C461.952 703.808 439.605 704.519 435.89 704.197Z"/><path fill="#11171C" d="M433.392 710.806L436.768 711.38L437.744 712.144L437.29 712.555C439.239 712.619 444.185 712.406 445.353 713.291L445.476 713.767L478.321 712.599C485.73 712.321 497.148 710.985 503.776 712.618L504.362 712.758C504.479 712.789 504.595 712.819 504.712 712.85C501.167 713.256 497.603 713.713 494.042 713.882L494.31 715.004L495.399 715.201L490.818 716.143C486.425 717.212 481.549 716.671 477.323 717.001C467.543 717.763 441.621 717.308 433.492 719.664C433.704 717.348 433.467 713.256 433.392 710.806Z"/><path fill="#CC9B57" d="M445.476 713.767L478.321 712.599C485.73 712.321 497.148 710.985 503.776 712.618L504.362 712.758C504.479 712.789 504.595 712.819 504.712 712.85C501.167 713.256 497.603 713.713 494.042 713.882C487.314 713.804 481.532 713.765 474.832 714.053C462.876 714.569 444.655 717.074 433.24 715.561C437.299 714.837 441.38 714.239 445.476 713.767Z"/><path fill="#11171C" d="M495.399 715.201C498.687 714.896 499.401 714.724 502.565 715.809L502.874 716.373C501.312 717.208 501.088 717.135 499.263 717.233C498.01 717.516 496.927 717.629 495.897 718.368C496.094 718.818 496.357 719.496 496.601 719.894C488.438 720.274 437.135 724.467 433.885 722.479L433.365 721.448L433.492 719.664C441.621 717.308 467.543 717.763 477.323 717.001C481.549 716.671 486.425 717.212 490.818 716.143L495.399 715.201Z"/><path fill="#8A7256" d="M490.818 716.143L490.993 717.115C480.63 719.218 440.609 718.04 433.365 721.448L433.492 719.664C441.621 717.308 467.543 717.763 477.323 717.001C481.549 716.671 486.425 717.212 490.818 716.143Z"/><path fill="#CC9B57" d="M495.399 715.201C498.687 714.896 499.401 714.724 502.565 715.809L502.874 716.373C501.312 717.208 501.088 717.135 499.263 717.233L490.993 717.115L490.818 716.143L495.399 715.201Z"/><path fill="#050401" d="M390.235 651.706C394.149 647.047 398.246 642.548 404.753 642.363C420.416 641.92 427.928 661.96 417.283 672.72C416.284 673.712 415.244 674.661 414.166 675.566C406.818 680.402 404.968 680.27 396.318 680.331C383.376 672.29 380.265 664.614 390.235 651.706Z"/><path fill="#03203D" d="M418.848 661.47L418.625 662.224C416.893 668.237 413.315 672.862 406.476 672.323C388.116 670.878 390.317 642.683 408.33 646.718L409.016 647.537C414.846 651.315 417.225 653.556 416.715 661.016L418.848 661.47Z"/><path fill="#FEFEFE" d="M409.016 647.537C414.846 651.315 417.225 653.556 416.715 661.016C415.492 659.614 407.232 649.413 407.026 648.781L409.016 647.537Z"/><path fill="#03203D" d="M396.318 680.331C383.376 672.29 380.265 664.614 390.235 651.706L392.672 653.583C390.355 667.436 398.144 676.557 412.637 673.339L414.166 675.566C406.818 680.402 404.968 680.27 396.318 680.331Z"/><path fill="#FDC357" d="M392.672 653.583C394.084 650.837 395.801 648.844 398.201 646.902C400.815 644.787 408.292 642.462 410.39 646.126L408.33 646.718C390.317 642.683 388.116 670.878 406.476 672.323C413.315 672.862 416.893 668.237 418.625 662.224L418.848 661.47C418.912 654.066 416.925 653.587 415.738 647.678C421.694 657.026 423.915 666.548 412.637 673.339C398.144 676.557 390.355 667.436 392.672 653.583Z"/><path fill="#050401" d="M454.587 649.556C459.167 645.286 463.194 641.386 469.927 641.459C479.275 641.561 485.456 650.786 484.644 659.527C483.911 667.408 478.909 672.039 472.145 675.247C470.319 676.124 468.185 676.954 466.295 677.744C449.99 675.65 443.365 661.497 454.587 649.556Z"/><path fill="#03203D" d="M481.623 655.778C481.372 660.03 481.247 663.415 478.359 666.922C476.526 669.189 473.798 670.545 470.885 670.637C467.379 670.775 464.03 669.329 461.571 666.856C459.025 664.297 457.612 660.822 457.65 657.212C457.728 651.283 462.426 644.809 468.87 645.209C470.206 646.056 470.31 646.274 471.904 646.414C477.577 648.402 478.325 649.917 479.342 655.746L481.623 655.778Z"/><path fill="#FEFEFE" d="M471.904 646.414C477.577 648.402 478.325 649.917 479.342 655.746C476.862 655.359 472.141 649.824 471.118 647.439L471.904 646.414Z"/><path fill="#03203D" d="M454.587 649.556L457.127 650.939C454.598 662.393 458.311 672.018 471.151 672.793L472.145 675.247C470.319 676.124 468.185 676.954 466.295 677.744C449.99 675.65 443.365 661.497 454.587 649.556Z"/><path fill="#FDC357" d="M457.127 650.939C461.202 645.469 464.263 642.399 471.754 643.412C473.819 643.691 477.28 645.126 478.22 647.032C473.56 645.875 473.965 644.925 468.87 645.209C462.426 644.809 457.728 651.283 457.65 657.212C457.612 660.822 459.025 664.297 461.571 666.856C464.03 669.329 467.379 670.775 470.885 670.637C473.798 670.545 476.526 669.189 478.359 666.922C481.247 663.415 481.372 660.03 481.623 655.778L481.164 652.464L481.538 652.003C482.325 652.752 482.338 652.675 482.631 653.707L481.255 654.184L481.299 654.782L482.891 654.828C483.987 664.425 480.383 669.961 471.151 672.793C458.311 672.018 454.598 662.393 457.127 650.939Z"/><path fill="#FDC357" d="M520.695 641.306C525.765 638.771 528.252 637.899 533.849 637.027C550.378 644.149 551.824 658.564 538.282 669.781C534.702 671.931 531.313 673.474 527.101 673.092C514.271 671.927 507.755 655.778 515.903 645.859C517.441 643.988 518.886 642.809 520.695 641.306Z"/><path fill="#03203D" d="M538.282 669.781C534.702 671.931 531.313 673.474 527.101 673.092C514.271 671.927 507.755 655.778 515.903 645.859C517.441 643.988 518.886 642.809 520.695 641.306L523.124 642.986C521.296 646.597 519.391 650.155 517.992 653.953C521.709 664.756 524.313 668.397 536.487 667.605L538.282 669.781Z"/><path fill="#050401" d="M520.695 641.306C525.765 638.771 528.252 637.899 533.849 637.027C550.378 644.149 551.824 658.564 538.282 669.781L536.487 667.605C553.259 659.661 542.842 629.236 523.124 642.986L520.695 641.306Z"/><path fill="#03203D" d="M529.287 641.604C537.231 639.276 542.896 644.008 543.53 651.997C544.737 658.972 540.294 663.363 534.812 666.448C517.29 664.585 516.483 647.446 529.287 641.604Z"/><path fill="#FEFEFE" d="M529.287 641.604C537.231 639.276 542.896 644.008 543.53 651.997L541.931 651.439L540.947 652.845L540.018 652.891C537.684 650.731 532.219 645.721 531.999 642.803C530.342 642.713 530.857 642.74 529.287 641.604Z"/><path fill="#050401" d="M529.287 641.604C537.231 639.276 542.896 644.008 543.53 651.997L541.931 651.439C540.334 645.296 537.897 643.688 531.999 642.803C530.342 642.713 530.857 642.74 529.287 641.604Z"/><path fill="#FEFEFE" d="M441.34 386.136C445.539 386.01 459.855 385.689 463.123 387.218C459.295 388.98 422.489 389.5 415.16 389.906C408.846 390.674 398.816 391.339 392.55 391.565C405.56 386.001 426.845 386.605 441.34 386.136Z"/><path fill="#FEFEFE" d="M578.035 460.25C579.224 460.502 579.513 460.648 580.645 461.121C580.931 461.723 585.839 501.663 585.994 504.407C583.955 503.934 584.494 504.349 583.177 503.018C582.107 498.075 577.194 463.74 578.035 460.25Z"/><path fill="#FEFEFE" d="M542.258 397.954C549.883 397.494 556.072 398.602 563.122 401.341C570.371 410.546 577.576 429.055 577.788 440.781C575.38 439.134 573.717 428.572 572.368 425.078C568.556 414.879 566.324 402.487 553.268 401.144C550.398 400.849 544.834 399.441 542.258 397.954Z"/><path fill="#FEFEFE" d="M485.954 388.842C491.801 388.826 519.394 390.923 523.374 392.6L523.487 393.816C511.099 392.802 498.884 391.695 486.461 391.236C486.182 390.948 485.902 390.661 485.622 390.373L485.954 388.842Z"/><path fill="#FFF0C5" d="M537.29 605.074C540.028 602.861 543.203 600.628 546.063 598.527C545.766 607.44 526.108 614.546 518.714 615.477C525.322 610.919 532.929 610.275 537.29 605.074Z"/><path fill="#FEFEFE" d="M584.913 511.347L586.685 511.905C588.957 514.692 587.908 518.891 587.528 522.642C584.573 520.882 585.019 514.566 584.913 511.347Z"/><path fill="#03203D" d="M526.048 750.088L527.803 749.08C527.445 758.201 526.389 768.837 525.226 777.951C531.219 780.504 533.851 781.296 536.526 787.582L536.816 788.253C536.504 790.552 536.163 792.847 535.792 795.138C539.593 797.488 544.174 800.118 547.538 802.959C559.396 811.362 571.805 820.553 574.11 835.937C575.435 844.78 575.372 854.375 573.384 863.102C567.885 868.212 560.129 870.088 552.693 869.675C546.541 870.071 540.96 870.5 534.81 869.578C524.887 868.091 515.548 865.048 505.484 864.393C505.554 861.941 505.544 861.627 504.567 859.388C504.95 861.683 505.484 862.456 504.665 864.328C498.903 862.94 492.964 860.281 487.586 857.783L483.936 855.621C482.931 854.909 481.442 853.594 480.443 852.769C479.771 851.957 479.087 850.751 478.512 849.829C478.126 845.205 476.606 839.274 476.57 835.407C476.43 820.461 478.423 806.675 488.354 795.225C487.565 792.772 487.401 791.817 487.018 789.33C486.977 780.625 492.566 776.874 500.435 775.751C501.343 776.888 500.97 778.373 501.739 780.616C503.041 779.267 503.897 773.136 504.262 771.083L504.827 770.42C504.286 769.905 504.32 769.702 503.982 768.948L504.671 767.514L504.73 766.633C503.655 765.462 504.06 764.94 504.375 763.644L504.82 762.848L504.136 761.897L504.97 760.763L504.92 760.38C503.392 758.252 503.842 753.655 504.268 751.123L505.261 750.612C506.939 750.33 513.94 750.88 516.556 750.794C520 750.682 522.649 750.364 526.048 750.088Z"/><path fill="#FDC357" d="M526.048 750.088L527.803 749.08C527.445 758.201 526.389 768.837 525.226 777.951C531.219 780.504 533.851 781.296 536.526 787.582L536.816 788.253C536.504 790.552 536.163 792.847 535.792 795.138C539.593 797.488 544.174 800.118 547.538 802.959L544.428 804.712C541.137 800.354 539.284 799.899 534.196 797.907C526.429 803.306 519.829 808.464 509.808 805.221L509.533 803.519C503.285 800.97 498.579 796.46 495.227 790.696C494.679 787.817 495.146 786.281 496.149 783.633C494.016 781.955 494.729 782.009 492.437 781.825C489.381 783.501 489.487 786.62 487.018 789.33C486.977 780.625 492.566 776.874 500.435 775.751C501.343 776.888 500.97 778.373 501.739 780.616C503.041 779.267 503.897 773.136 504.262 771.083L504.827 770.42C504.286 769.905 504.32 769.702 503.982 768.948L504.671 767.514L504.73 766.633C503.655 765.462 504.06 764.94 504.375 763.644L504.82 762.848L504.136 761.897L504.97 760.763L504.92 760.38C503.392 758.252 503.842 753.655 504.268 751.123L505.261 750.612C506.939 750.33 513.94 750.88 516.556 750.794C520 750.682 522.649 750.364 526.048 750.088Z"/><path fill="#050401" d="M526.048 750.088L527.803 749.08C527.445 758.201 526.389 768.837 525.226 777.951C531.219 780.504 533.851 781.296 536.526 787.582L536.816 788.253C536.504 790.552 536.163 792.847 535.792 795.138C539.593 797.488 544.174 800.118 547.538 802.959L544.428 804.712C541.137 800.354 539.284 799.899 534.196 797.907C526.429 803.306 519.829 808.464 509.808 805.221L509.533 803.519C503.285 800.97 498.579 796.46 495.227 790.696L495.96 789.309C500.095 793.14 506.872 796.429 512.592 796.545C517.877 796.651 527.986 794.73 527.737 787.986C526.712 786.129 526.248 786.06 524.302 784.969C523.097 786.13 523.647 786.057 522.445 786.179C522.516 777.251 524.904 762.911 525.507 752.932C521.631 753.585 515.4 753.372 512.227 754.917L511.753 756.56L511.278 759.378L510.94 760.657C508.768 761.033 507.109 760.662 504.92 760.38C503.392 758.252 503.842 753.655 504.268 751.123L505.261 750.612C506.939 750.33 513.94 750.88 516.556 750.794C520 750.682 522.649 750.364 526.048 750.088Z"/><path fill="#FDC357" d="M524.302 784.969C524.332 782.447 523.935 782.521 525.054 780.7C530.367 779.589 539.632 788.23 531.843 795.675C524.652 802.548 519.525 805.246 509.533 803.519C503.285 800.97 498.579 796.46 495.227 790.696L495.96 789.309C500.095 793.14 506.872 796.429 512.592 796.545C517.877 796.651 527.986 794.73 527.737 787.986C526.712 786.129 526.248 786.06 524.302 784.969Z"/><path fill="#CC9B57" d="M505.261 750.612C506.939 750.33 513.94 750.88 516.556 750.794C520 750.682 522.649 750.364 526.048 750.088C520.871 753.021 514.737 753.762 509.011 752.147C507.638 751.759 506.523 751.253 505.261 750.612Z"/><path fill="#CC9B57" d="M511.278 759.378C509.12 758.822 506.745 758.364 505.182 756.735C508.128 755.832 508.649 757.853 511.753 756.56L511.278 759.378Z"/><path fill="#03203D" d="M496.149 783.633C497.147 782.604 497.247 782.482 498.487 781.631L499.656 782.346C500.365 783.95 501.987 785.623 503.757 785.899L504.007 785.215C505.94 787.611 507.453 788.21 509.933 789.945L506.219 788.941L505.896 789.302C511.684 794.681 520.522 795.567 522.445 786.179C523.647 786.057 523.097 786.13 524.302 784.969C526.248 786.06 526.712 786.129 527.737 787.986C527.986 794.73 517.877 796.651 512.592 796.545C506.872 796.429 500.095 793.14 495.96 789.309L495.227 790.696C494.679 787.817 495.146 786.281 496.149 783.633Z"/><path fill="#CC9B57" d="M496.149 783.633C497.147 782.604 497.247 782.482 498.487 781.631L499.656 782.346C498.641 785.815 496.754 784.539 495.96 789.309L495.227 790.696C494.679 787.817 495.146 786.281 496.149 783.633Z"/><path fill="#050401" d="M504.262 771.083L509.262 773.899L509.419 774.6C508.003 774.975 507.12 775.114 505.801 775.757C507.473 776.845 508.604 777.554 510.135 778.855L509.946 780.035C507.036 781.26 506.237 779.784 504.114 781.122C505.46 783.423 508.719 785.5 508.675 786.387C506.942 786.016 505.698 785.731 504.007 785.215L503.757 785.899C501.987 785.623 500.365 783.95 499.656 782.346L498.487 781.631C497.247 782.482 497.147 782.604 496.149 783.633C494.016 781.955 494.729 782.009 492.437 781.825C489.381 783.501 489.487 786.62 487.018 789.33C486.977 780.625 492.566 776.874 500.435 775.751C501.343 776.888 500.97 778.373 501.739 780.616C503.041 779.267 503.897 773.136 504.262 771.083Z"/><path fill="#050401" d="M504.375 763.644C506.753 764.727 508.687 765.292 510.206 767.341L509.857 767.935C507.786 768.04 506.663 767.398 504.73 766.633C503.655 765.462 504.06 764.94 504.375 763.644Z"/><path fill="#050401" d="M504.671 767.514C506.72 768.453 508.349 768.872 509.466 770.727L509.33 771.547C507.456 771.942 506.635 771.326 504.827 770.42C504.286 769.905 504.32 769.702 503.982 768.948L504.671 767.514Z"/><path fill="#050401" d="M504.82 762.848L504.136 761.897L504.97 760.763C507.185 761.478 509.02 761.812 510.627 763.424L510.099 764.001C507.784 763.906 507.013 763.553 504.82 762.848Z"/><path fill="#FEFEFE" d="M489.887 850.38L491.428 848.929C492.198 849.384 492.946 849.969 493.759 850.066C517.074 859.365 550.003 869.31 572.719 853.776C572.735 855.343 572.857 859.721 572.324 860.991C569.477 867.768 559.23 868.132 552.693 869.675C546.541 870.071 540.96 870.5 534.81 869.578C524.887 868.091 515.548 865.048 505.484 864.393C505.554 861.941 505.544 861.627 504.567 859.388C504.95 861.683 505.484 862.456 504.665 864.328C498.903 862.94 492.964 860.281 487.586 857.783C489.099 856.327 488.781 852.626 488.924 850.042L489.887 850.38Z"/><path fill="#11171C" d="M489.887 850.38L491.428 848.929C492.198 849.384 492.946 849.969 493.759 850.066C493.215 852.634 492.964 857.895 494.245 860.256L495.096 860.101C495.738 858.445 496.352 856.778 496.938 855.101C498.286 858.336 495.649 859.921 498.89 861.74L499.738 861.259C499.984 859.631 499.865 858.22 500.87 857.331L501.66 858.124L501.506 859.003C501.327 860.058 501.311 860.447 501.322 861.543C502.304 862.352 503.77 863.483 504.665 864.328C498.903 862.94 492.964 860.281 487.586 857.783C489.099 856.327 488.781 852.626 488.924 850.042L489.887 850.38Z"/><path fill="#FEFEFE" d="M489.887 850.38L491.428 848.929C492.14 852.071 492.755 854.651 491.635 857.764L490.927 857.954C489.611 855.776 489.909 853.025 489.887 850.38Z"/><path fill="#FDC357" d="M509.808 805.221C519.829 808.464 526.429 803.306 534.196 797.907C539.284 799.899 541.137 800.354 544.428 804.712C541.518 807.562 527.841 807.247 519.935 812.444C511.814 817.781 509.028 825.727 504.168 829.513C502.312 827.979 501.612 823.083 501.675 820.751C501.815 815.544 505.851 808.586 509.808 805.221Z"/><path fill="#11171C" d="M478.512 849.829C478.605 847.38 478.378 845.389 479.67 843.543L480.744 843.743L482.622 844.792C483.42 845.394 484.57 846.203 485.29 846.839L486.552 846.816C488.784 848.023 488.586 847.443 489.117 849.217L488.924 850.042C488.781 852.626 489.099 856.327 487.586 857.783L483.936 855.621C482.931 854.909 481.442 853.594 480.443 852.769C479.771 851.957 479.087 850.751 478.512 849.829Z"/><path fill="#FEFEFE" d="M485.29 846.839L486.552 846.816C488.784 848.023 488.586 847.443 489.117 849.217L488.924 850.042C488.781 852.626 489.099 856.327 487.586 857.783L483.936 855.621C485.04 853.871 484.791 849.747 485.29 846.839Z"/><path fill="#393639" d="M485.29 846.839L486.552 846.816C485.676 850.097 485.041 855.167 487.586 857.783L483.936 855.621C485.04 853.871 484.791 849.747 485.29 846.839Z"/><path fill="#FEFEFE" d="M482.622 844.792C483.42 845.394 484.57 846.203 485.29 846.839C484.791 849.747 485.04 853.871 483.936 855.621C481.645 852.662 482.464 848.786 482.622 844.792Z"/><path fill="#FEFEFE" d="M478.512 849.829C478.605 847.38 478.378 845.389 479.67 843.543L480.744 843.743C480.869 847.272 481.034 849.309 480.443 852.769C479.771 851.957 479.087 850.751 478.512 849.829Z"/><path fill="#FEFEFE" d="M507.881 851.195C506.691 842.313 511.401 828.024 516.67 820.85C526.128 807.972 546.828 804.707 559.355 815.042C570.395 824.151 572.817 837.097 572.614 850.67C559.494 859.868 543.606 860.711 528.15 857.88C527.121 857.685 526.101 857.439 525.097 857.142C523.868 853.969 522.66 850.789 521.471 847.6C521.655 850.348 522.093 853.785 521.452 856.367L520.656 856.486C519.832 855.523 519.225 854.951 518.745 853.766C518.024 854.173 518.41 854.014 517.32 853.837L516.209 854.151L514.528 853.1L512.203 852.884L510.79 852.834C510.018 852.278 508.755 851.663 507.881 851.195Z"/><path fill="#11171C" d="M507.881 851.195C510.393 845.889 509.432 835.122 514.569 831.569C514.993 832.125 515.176 832.133 514.917 833.115C512.737 841.385 509.942 843.561 510.79 852.834C510.018 852.278 508.755 851.663 507.881 851.195Z"/><path fill="#203952" d="M512.203 852.884C512.326 845.298 512.487 842.11 516.603 835.742C516.514 842.594 515.12 846.896 514.528 853.1L512.203 852.884Z"/><path fill="#11171C" d="M517.32 853.837C517.558 851.888 517.568 849.318 518.808 847.973C520.105 849.254 519.166 852.161 518.745 853.766C518.024 854.173 518.41 854.014 517.32 853.837Z"/><path fill="#FEFEFE" d="M383.176 750.214C388.098 756.328 404.371 756.4 410.698 753.195C410.511 761.708 408.729 773.504 407.558 782.147C414.507 786.278 417.835 789.02 420.467 796.94L418.883 802.735C421.391 808.494 422.713 812.531 424.6 818.533C427.355 832.066 426.517 844.738 425.502 858.507C423.929 863.455 417.233 866.87 412.981 869.337C399.735 877.024 376.921 877.665 361.857 874.393C361.384 873.161 360.789 871.07 359.834 870.376C359.755 870.829 359.378 873.184 359.267 873.457C356.643 872.669 356.611 871.448 355.605 868.935L355.058 868.808C354.621 870.505 354.782 871.265 353.696 872.082C352.365 871.561 352.387 871.663 351.566 870.517C351.284 868.322 351.601 867.818 350.31 866.377L349.85 866.852L350.1 870.022L349.355 870.231C347.719 869.179 347.061 869.228 346.742 867.12L346.403 868.275L345.275 868.868C343.849 868.286 343.14 867.844 341.84 867.076L339.024 866.015C336.373 864.416 335.878 863.175 336.219 860.119C336.833 854.604 338.168 848.859 339.394 843.458C343.083 826.32 348.271 822.71 361.145 812.391C364.154 809.979 368.847 804.656 371.538 801.608C364.188 792.185 373.777 784.801 381.243 780.576C381.279 772.915 382.264 757.764 383.176 750.214Z"/><path fill="#FDC357" d="M383.176 750.214C388.098 756.328 404.371 756.4 410.698 753.195C410.511 761.708 408.729 773.504 407.558 782.147C414.507 786.278 417.835 789.02 420.467 796.94L418.883 802.735C421.391 808.494 422.713 812.531 424.6 818.533C427.355 832.066 426.517 844.738 425.502 858.507C425.363 856.327 425.731 855.573 424.487 854.303C422.128 854.67 420.38 856.872 417.951 858.15C417.896 856.235 417.251 857.444 417.479 854.623L417.3 849.33C414.333 830.382 405.399 817.493 385.981 812.375L385.952 809.142L385.218 808.604C380.193 808.594 376.257 803.888 373.295 800.409L371.538 801.608C364.188 792.185 373.777 784.801 381.243 780.576C381.279 772.915 382.264 757.764 383.176 750.214Z"/><path fill="#FDC357" d="M383.176 750.214C388.098 756.328 404.371 756.4 410.698 753.195C410.511 761.708 408.729 773.504 407.558 782.147C414.507 786.278 417.835 789.02 420.467 796.94L418.883 802.735C421.391 808.494 422.713 812.531 424.6 818.533C424.142 819.937 423.697 821.051 423.139 822.419C421.717 815.849 420.185 811.678 417.721 805.606C415.52 807.09 412.934 808.353 410.566 809.589C412.857 805.173 418.8 799.085 417.455 794.121C416.27 789.745 411.413 784.994 406.505 786.096C406.046 786.171 405.668 786.021 405.157 785.915C403.897 796.345 403.115 795.413 392.804 795.223C389.857 793.417 392.966 793.656 389.186 791.106L385.923 790.018C384.927 790.602 385.37 790.331 384.736 791.714L385.628 791.437L384.978 792.064C383.333 791.895 382.129 791.626 380.507 791.284C380.756 788.182 380.884 786.036 380.834 782.934C373.289 788.363 369.83 790.728 373.295 800.409L371.538 801.608C364.188 792.185 373.777 784.801 381.243 780.576C381.279 772.915 382.264 757.764 383.176 750.214Z"/><path fill="#050401" d="M383.176 750.214C388.098 756.328 404.371 756.4 410.698 753.195C410.511 761.708 408.729 773.504 407.558 782.147C414.507 786.278 417.835 789.02 420.467 796.94L418.883 802.735C421.391 808.494 422.713 812.531 424.6 818.533C424.142 819.937 423.697 821.051 423.139 822.419C421.717 815.849 420.185 811.678 417.721 805.606C415.52 807.09 412.934 808.353 410.566 809.589C412.857 805.173 418.8 799.085 417.455 794.121C416.27 789.745 411.413 784.994 406.505 786.096C406.046 786.171 405.668 786.021 405.157 785.915C406.626 774.937 407.85 767.407 408.805 755.922C396.082 759.049 396.726 758.342 385.805 755.538L385.334 755.981C386.117 757.505 387.923 757.991 389.753 758.941L389.963 759.685C388.284 759.462 386.399 758.672 385.494 759.207C388.413 761.909 388.969 760.048 391.36 762.871L391.42 766.072L390.567 766.772C388.113 765.975 385.733 765.098 383.193 764.687C386.409 766.465 389.616 768.261 392.812 770.073C388.845 769.118 386.32 768.468 382.508 767.081C384.183 768.148 389.675 771.251 390.22 772.588C388.599 773.007 386.54 772.151 384.674 771.681C385.351 773.384 388.362 774.406 390.1 777.013C387.438 776.964 386.657 774.786 385.156 775.628C386.522 776.536 389.846 778.462 390.407 779.714L391.098 783.027C388.946 783.566 384.803 780.709 382.601 779.444C385.722 782.146 391.853 785.247 391.354 788.987C389.24 789.695 386.46 788.319 384.278 787.434C385.681 788.426 388.048 789.965 389.186 791.106L385.923 790.018C384.927 790.602 385.37 790.331 384.736 791.714L385.628 791.437L384.978 792.064C383.333 791.895 382.129 791.626 380.507 791.284C380.756 788.182 380.884 786.036 380.834 782.934C373.289 788.363 369.83 790.728 373.295 800.409L371.538 801.608C364.188 792.185 373.777 784.801 381.243 780.576C381.279 772.915 382.264 757.764 383.176 750.214Z"/><path fill="#CC9B57" d="M391.42 766.072C390.749 765.363 387.861 763.727 386.945 763.186L386.972 763.624L386.276 763.495L385.964 762.682L385.972 763.348L386.651 763.42C385.416 763.018 385.695 763.383 385.221 762.592L385.908 761.948L386.069 762.59L386.63 761.988L386.756 762.649C388.501 762.636 389.416 763.043 391.36 762.871L391.42 766.072Z"/><path fill="#AF8A56" d="M391.098 783.027C388.251 780.588 386.934 781.263 384.043 777.813C387.15 777.864 387.161 780.189 390.407 779.714L391.098 783.027Z"/><path fill="#11171C" d="M380.834 782.934C380.884 786.036 380.756 788.182 380.507 791.284L379.346 792.116L379.431 792.73C372.229 803.336 401.603 809.216 406.837 810.979C400.759 811.214 391.707 811.143 385.952 809.142L385.218 808.604C380.193 808.594 376.257 803.888 373.295 800.409C369.83 790.728 373.289 788.363 380.834 782.934Z"/><path fill="#CC9B57" d="M380.834 782.934C380.884 786.036 380.756 788.182 380.507 791.284L379.346 792.116C378.367 790.69 378.652 789.313 378.688 787.631L377.984 787.023C374.187 788.678 371.99 794.82 374.23 798.529C376.798 802.783 381.332 805.67 385.218 808.604C380.193 808.594 376.257 803.888 373.295 800.409C369.83 790.728 373.289 788.363 380.834 782.934Z"/><path fill="#03203D" d="M389.186 791.106C392.966 793.656 389.857 793.417 392.804 795.223C403.115 795.413 403.897 796.345 405.157 785.915C405.668 786.021 406.046 786.171 406.505 786.096C408.679 787.916 411.114 789.71 411.205 792.771C411.385 798.84 401.407 799.07 397.329 798.925C391.196 798.707 383.91 797.088 379.431 792.73L379.346 792.116L380.507 791.284C382.129 791.626 383.333 791.895 384.978 792.064L385.628 791.437L384.736 791.714C385.37 790.331 384.927 790.602 385.923 790.018L389.186 791.106Z"/><path fill="#11171C" d="M424.6 818.533C427.355 832.066 426.517 844.738 425.502 858.507C425.363 856.327 425.731 855.573 424.487 854.303C422.128 854.67 420.38 856.872 417.951 858.15C417.896 856.235 417.251 857.444 417.479 854.623C417.734 855.299 417.575 854.979 418.421 855.477C420.679 854.433 422.547 852.404 424.412 850.669C425.728 841.031 424.497 831.965 423.139 822.419C423.697 821.051 424.142 819.937 424.6 818.533Z"/><path fill="#FEFEFE" d="M417.951 858.15C420.38 856.872 422.128 854.67 424.487 854.303C425.731 855.573 425.363 856.327 425.502 858.507C423.929 863.455 417.233 866.87 412.981 869.337C399.735 877.024 376.921 877.665 361.857 874.393C361.384 873.161 360.789 871.07 359.834 870.376C359.755 870.829 359.378 873.184 359.267 873.457C356.643 872.669 356.611 871.448 355.605 868.935L355.058 868.808C354.621 870.505 354.782 871.265 353.696 872.082C352.365 871.561 352.387 871.663 351.566 870.517C351.284 868.322 351.601 867.818 350.31 866.377L349.85 866.852L350.1 870.022L349.355 870.231C347.719 869.179 347.061 869.228 346.742 867.12L346.403 868.275L345.275 868.868C343.849 868.286 343.14 867.844 341.84 867.076C341.855 864.508 342.081 861.981 342.275 859.422L343.86 860.204C350.335 863.15 356.655 863.562 363.491 864.889C382.898 868.655 400.332 867.919 417.951 858.15Z"/><path fill="#11171C" d="M342.275 859.422L343.86 860.204C343.36 862.756 342.724 864.562 343.508 866.986L345.275 868.868C343.849 868.286 343.14 867.844 341.84 867.076C341.855 864.508 342.081 861.981 342.275 859.422Z"/><path fill="#03203D" d="M385.981 812.375C405.399 817.493 414.333 830.382 417.3 849.33L417.479 854.623C417.251 857.444 417.896 856.235 417.951 858.15C400.332 867.919 382.898 868.655 363.491 864.889C356.655 863.562 350.335 863.15 343.86 860.204L342.275 859.422C342.081 861.981 341.855 864.508 341.84 867.076L339.024 866.015C336.373 864.416 335.878 863.175 336.219 860.119C336.833 854.604 338.168 848.859 339.394 843.458L340.058 843.634C339.67 846.24 338.873 850.79 340.37 853.085C341.317 852.432 343.025 840.043 344.612 836.908C347.686 830.835 348.76 829.153 353.831 824.434C352.437 829.626 349.3 835.643 347.305 841.035L348.177 841.486C349.681 838.336 350.433 837.132 352.413 834.241C351.482 839.79 346.903 852.394 348.943 856.21L349.904 856.125L351.5 856.301L352.833 858.087L355.55 859.593L356.385 859.866C357.552 858.842 357.384 857.364 357.666 855.461L357.686 855.452C357.593 856.248 359.337 859.499 359.806 860.849C374.11 865.412 388.181 865.34 402.701 862.138C408.273 860.909 414.025 859.439 415.962 853.493C415.552 846.073 412.525 835.962 408.051 829.977C403.208 823.5 393.359 816.023 385.251 814.711L385.981 812.375Z"/><path fill="#FEFEFE" d="M339.024 866.015C339.189 863.388 339.138 860.337 340.145 857.996L340.993 857.892L342.275 859.422C342.081 861.981 341.855 864.508 341.84 867.076L339.024 866.015Z"/><path fill="#80848B" d="M348.177 841.486C347.619 843.461 346.09 852.73 345.369 853.268C345.269 848.175 345.818 845.932 347.305 841.035L348.177 841.486Z"/><path fill="#03203D" d="M373.295 800.409C376.257 803.888 380.193 808.594 385.218 808.604L385.952 809.142L385.981 812.375L385.251 814.711C360.064 812.284 348.202 818.879 340.058 843.634L339.394 843.458C343.083 826.32 348.271 822.71 361.145 812.391C364.154 809.979 368.847 804.656 371.538 801.608L373.295 800.409Z"/><path fill="#11171C" d="M349.904 856.125C350.429 852.044 350.023 846.914 351.958 843.68C353.285 845.473 352.029 853.951 351.5 856.301L349.904 856.125Z"/><path fill="#11171C" d="M352.833 858.087C353.227 855.643 353.372 853.044 354.699 851.061C356.167 852.74 355.393 857.217 355.55 859.593L352.833 858.087Z"/><path fill="#050401" d="M663.47 699.316C663.615 701.365 663.738 703.035 663.697 705.109C663.754 709.558 663.883 713.001 663.279 717.449C663.428 728.396 653.355 736.164 645.634 743.125C644.632 743.275 640.555 743.904 639.885 744.276C635.105 746.931 628.303 753.309 622.319 749.255C617.238 741.64 632.391 731.192 631.724 718.813L633.759 718.784C633.688 713.942 632.545 711.761 636.792 708.959L636.161 706.778C648.924 704.867 649.617 706.257 661.999 701.378L662.918 701.071L663.47 699.316ZM638.5 742.599C640.813 738.921 642.245 736.678 644.034 732.656C637.557 732.359 637.276 732.527 632.514 728.161C631.697 730.014 629.892 733.743 629.783 735.661C629.409 742.244 631.229 746.964 638.5 742.599ZM629.359 748.38C631.399 747.131 631.509 747.55 632.093 745.822C631.322 743.161 628.311 740.659 626.332 738.372C624.18 741.361 623.177 742.434 623.434 746.238C624.972 748.916 626.426 749.049 629.359 748.38Z"/><path fill="#FDC357" d="M636.792 708.959C639.718 708.103 642.497 707.026 645.309 708.354C649.58 710.371 648.559 721.874 646.351 725.311C638.109 738.135 634.4 726.746 633.759 718.784C633.688 713.942 632.545 711.761 636.792 708.959Z"/><path fill="#FDC357" d="M663.279 717.449L663.038 718.06C662.085 720.426 661.53 722.237 659.191 723.251L658.449 722.317C657.6 718.405 657.919 708.274 659.478 704.7C661.566 704.008 661.111 704.319 663.697 705.109C663.754 709.558 663.883 713.001 663.279 717.449Z"/><path fill="#FDC357" d="M653.828 706.495C654.885 706.305 654.847 706.381 655.876 706.751C657.251 709.979 655.526 720.37 655.064 724.279L650.155 726.804L649.182 727.011C648.807 726.307 649.306 710.861 649.312 708.762C650.378 707.283 651.787 707.216 653.828 706.495Z"/><path fill="#03203D" d="M516.136 269.23L516.649 271.545L519.57 271.05C515.982 278.228 504.145 296.63 499.238 303.328C490.609 316.729 479.493 332.346 472.081 346.074C474.103 349.634 475.687 352.27 476.442 356.343L473.533 356.019L470.109 353.904C467.868 354.195 468.542 353.819 466.862 355.078C459.945 353.463 455.133 352.195 448.134 353.149L448.74 351.828L451.144 351.121C454.602 349.793 455.951 348.089 458.605 345.52L466.827 344.774C473.995 333.247 481.837 321.822 489.342 310.467C498.25 296.988 506.803 282.353 516.136 269.23Z"/><path fill="#60605C" d="M516.649 271.545L519.57 271.05C515.982 278.228 504.145 296.63 499.238 303.328C495.944 304.282 493.914 308.578 491.997 311.46C487.42 318.311 482.892 325.194 478.413 332.109C476.554 335.03 471.857 343.025 469.99 344.989C469.985 339.046 505.657 290.603 510.114 281.062C510.928 279.32 515.01 272.83 516.649 271.545Z"/><path fill="#FEFEFE" d="M470.109 353.904C469.331 349.845 467.285 351.869 467.291 349.212C469.048 348.494 468.153 348.611 470.08 348.921C472.297 350.739 473.186 353.213 473.533 356.019L470.109 353.904Z"/><path fill="#03203D" d="M516.136 269.23C514.411 265.167 512.861 262.161 514.733 257.748C516.796 252.79 523.223 251.572 527.772 253.784C532.774 256.215 534.492 261.374 531.5 266.181C528.415 271.139 524.899 271.19 519.57 271.05L516.649 271.545L516.136 269.23Z"/><path fill="#FEFEFE" d="M524.569 253.872C530.322 256.33 532.512 259.38 529.387 265.217L528.398 264.798C528.295 256.046 522.811 261.41 524.569 253.872Z"/></svg>