<?xml version="1.0" encoding="utf-8"?>
<svg xmlns="http://www.w3.org/2000/svg" width="403" height="410" viewBox="0 0 403 410">
  <rect x="8" y="9" width="386" height="392" rx="52" fill="#FDC229" stroke="#0F0E0D" stroke-width="16"/>
  <path fill="#0F0E0D" transform="translate(-311 -308)" d="M461.514 382.107C491.405 381.757 521.363 382.351 551.264 381.92C558.761 381.812 566.431 382.113 573.857 383.116C606.177 387.481 635.356 409.982 645.667 441.259C652.409 461.724 650.706 484.034 640.935 503.239C629.569 525.394 611.371 537.884 588.217 545.387C592.249 551.727 597.02 558.17 601.361 564.361C619.39 590.077 638.067 615.307 656.215 640.947C637.106 641.644 619.457 641.168 600.4 641.06L579.688 640.986C567.912 627.037 555.631 607.793 544.621 592.497L473.227 493.52L531.178 493.535C543.539 493.573 558.891 494.389 571.01 492.161C581.143 490.298 589.779 478.287 589.237 467.804C587.72 438.457 560.514 441.966 539.126 442.299C529.59 442.424 516.587 442.421 507.486 440.531C497.945 438.637 489.126 434.104 482.034 427.446C469.555 415.579 462.194 399.314 461.514 382.107Z"/>
  <path fill="#0F0E0D" transform="translate(-311 -308)" d="M373.597 381.855C404.636 388.43 426.664 411.157 432.939 442.436C435.333 454.373 434.584 476.539 434.546 489.416L434.463 542.613C434.397 551.913 433.006 566.804 439.973 573.613C448.92 582.358 466.014 579.806 477.571 579.938C495.784 580.145 511.64 582.895 524.958 596.241C535.387 606.691 544.533 626.24 544.367 641.042C537.662 641.225 530.956 641.347 524.249 641.407L482.607 641.506C449.609 641.532 424.795 640.782 399.299 615.465C387.839 604.196 379.812 589.906 376.15 574.257C373.479 562.692 373.908 549.578 373.89 537.655L373.852 501.615L373.597 381.855Z"/>
</svg>
